<?xml version="1.0" standalone="no"?>
<!DOCTYPE svg PUBLIC "-//W3C//DTD SVG 1.1//EN" "http://www.w3.org/Graphics/SVG/1.1/DTD/svg11.dtd" >
<svg>
<metadata>
Created by FontForge 20110222 at Thu Feb 19 15:28:02 2015
 By deploy user
All copyrights are the property of their respective owners.
</metadata>
<defs>
<font id="CitrixSans-Light" horiz-adv-x="549" >
  <font-face 
    font-family="Citrix Sans Light"
    font-weight="300"
    font-stretch="normal"
    units-per-em="1000"
    panose-1="2 11 3 3 3 2 2 2 2 3"
    ascent="800"
    descent="-200"
    x-height="547"
    cap-height="710"
    bbox="-151 -267 1001 935"
    underline-thickness="50"
    underline-position="-75"
    unicode-range="U+000D-FB02"
  />
<missing-glyph horiz-adv-x="504" 
d="M14 0v665h475v-665h-475zM413 618h-323l162 -243zM223 333l-161 242v-484zM442 575l-162 -242l162 -243v485zM252 290l-162 -242h323z" />
    <glyph glyph-name="uniFB01" unicode="fi" horiz-adv-x="559" 
d="M419 0v500h-251v-500h-51v500h-93v47h93v31q0 190 178 190q40 0 90.5 -11t93.5 -32l-20 -46q-55 24 -93 33t-70 9q-68 0 -98 -34.5t-30 -114.5v-25h301v-547h-50z" />
    <glyph glyph-name="uniFB02" unicode="fl" horiz-adv-x="559" 
d="M168 500v-500h-51v500h-93v47h93v31q0 190 178 190q58 0 124 -22v22h50v-768h-50v695q-71 26 -127 26q-64 0 -94 -34t-30 -115v-25h146v-47h-146z" />
    <glyph glyph-name=".notdef" horiz-adv-x="504" 
d="M14 0v665h475v-665h-475zM413 618h-323l162 -243zM223 333l-161 242v-484zM442 575l-162 -242l162 -243v485zM252 290l-162 -242h323z" />
    <glyph glyph-name="glyph1" horiz-adv-x="0" 
 />
    <glyph glyph-name="glyph1" horiz-adv-x="0" 
 />
    <glyph glyph-name="uni000D" unicode="&#xd;" horiz-adv-x="230" 
 />
    <glyph glyph-name="space" unicode=" " horiz-adv-x="230" 
 />
    <glyph glyph-name="exclam" unicode="!" horiz-adv-x="270" 
d="M156 215h-42l-9 495h62zM95 38q0 19 11.5 31.5t28.5 12.5q16 0 28.5 -12.5t12.5 -31.5q0 -18 -12 -30t-29 -12t-28.5 12t-11.5 30z" />
    <glyph glyph-name="quotedbl" unicode="&#x22;" horiz-adv-x="337" 
d="M267 487h-40l-9 223h58zM111 487h-40l-9 223h58z" />
    <glyph glyph-name="numbersign" unicode="#" horiz-adv-x="653" 
d="M568 477h-109l-52 -236h109l-9 -45h-109l-44 -196h-47l44 196h-152l-45 -196h-47l43 196h-107l10 45h107l52 236h-106l8 45h107l42 188h47l-41 -188h152l41 188h47l-41 -188h110zM260 477l-53 -236h153l52 236h-152z" />
    <glyph glyph-name="dollar" unicode="$" 
d="M454 210q0 -65 -42 -108t-116 -51v-84h-45v83q-84 1 -154 23l12 48q78 -25 156 -25q65 0 102.5 31.5t37.5 80.5q0 33 -14.5 54.5t-46 40t-84.5 38.5q-83 31 -121.5 68t-38.5 92q0 63 40 104t110 49v81h46v-79q66 -2 134 -17l-12 -47q-70 18 -139 18q-60 0 -94.5 -28.5
t-34.5 -76.5q0 -42 32.5 -69.5t104.5 -54.5q95 -36 131 -73.5t36 -97.5z" />
    <glyph glyph-name="percent" unicode="%" horiz-adv-x="672" 
d="M307 552q0 -84 -35.5 -125.5t-100.5 -41.5t-100.5 42.5t-35.5 124.5q0 81 34.5 124.5t101.5 43.5q65 0 100.5 -42t35.5 -126zM260 552q0 62 -22.5 94t-66.5 32q-41 0 -65 -30t-24 -96q0 -61 22.5 -93t66.5 -32q89 0 89 125zM617 157q0 -84 -35.5 -125.5t-100.5 -41.5
t-100.5 42.5t-35.5 124.5t35 125t101 43q65 0 100.5 -42t35.5 -126zM570 157q0 62 -22.5 94t-66.5 32q-89 0 -89 -126q0 -61 22.5 -93t66.5 -32q89 0 89 125zM110 0h-50l483 710h49z" />
    <glyph glyph-name="ampersand" unicode="&#x26;" horiz-adv-x="673" 
d="M38 200q0 66 38.5 115.5t122.5 89.5q-54 93 -54 161q0 70 43.5 112t116.5 42q71 0 112.5 -37t41.5 -100q0 -58 -41.5 -101.5t-152.5 -91.5q96 -138 240 -264q28 39 44.5 94t16.5 107h50q0 -60 -20.5 -123.5t-54.5 -107.5q22 -18 60 -39.5t69 -31.5l-27 -44
q-63 21 -137 78q-39 -32 -97 -51t-117 -19q-121 0 -187.5 56.5t-66.5 154.5zM290 36q53 0 102 15t78 38q-72 65 -139.5 141.5t-108.5 138.5q-131 -58 -131 -170q0 -76 52 -119.5t147 -43.5zM194 566q0 -59 48 -140q75 32 106.5 53.5t46.5 46t15 56.5q0 45 -27.5 68.5
t-77.5 23.5q-51 0 -81 -27.5t-30 -80.5z" />
    <glyph glyph-name="quotesingle" unicode="'" horiz-adv-x="182" 
d="M111 487h-40l-9 223h58z" />
    <glyph glyph-name="parenleft" unicode="(" horiz-adv-x="273" 
d="M188 -167q-118 218 -118 468q0 249 118 467h50q-61 -117 -89 -231t-28 -236q0 -124 28.5 -239t88.5 -229h-50z" />
    <glyph glyph-name="parenright" unicode=")" horiz-adv-x="273" 
d="M35 -167q60 114 88.5 229.5t28.5 238.5q0 121 -27.5 234.5t-89.5 232.5h50q118 -218 118 -467q0 -250 -118 -468h-50z" />
    <glyph glyph-name="asterisk" unicode="*" horiz-adv-x="539" 
d="M416 429l-40 -26l-102 141l-102 -141l-41 26l114 136l-160 44l16 48l154 -58l-5 167h45l-5 -167l154 58l16 -48l-158 -44z" />
    <glyph glyph-name="plus" unicode="+" 
d="M296 321v-216h-45v216h-215v45h215v216h45v-216h216v-45h-216z" />
    <glyph glyph-name="comma" unicode="," horiz-adv-x="188" 
d="M136 29q0 -37 -19 -70.5t-52 -55.5l-23 25q21 14 36.5 37t17.5 48q-20 0 -30.5 9.5t-10.5 24.5t9.5 26t28.5 11q20 0 31.5 -13.5t11.5 -41.5z" />
    <glyph glyph-name="hyphen" unicode="-" horiz-adv-x="391" 
d="M55 247v46h281v-46h-281z" />
    <glyph glyph-name="period" unicode="." horiz-adv-x="188" 
d="M53 38q0 18 11.5 31t28.5 13q16 0 28.5 -12.5t12.5 -31.5q0 -18 -12 -30t-29 -12q-16 0 -28 12t-12 30z" />
    <glyph glyph-name="slash" unicode="/" horiz-adv-x="398" 
d="M70 -81h-48l305 849h48z" />
    <glyph glyph-name="zero" unicode="0" 
d="M497 363q0 -373 -222 -373q-115 0 -169 88t-54 268q0 185 56 279.5t167 94.5q115 0 168.5 -87t53.5 -270zM441 365q0 157 -41 233t-126 76q-83 0 -124 -83.5t-41 -245.5q0 -158 40 -233.5t125 -75.5q83 0 125 83.5t42 245.5z" />
    <glyph glyph-name="one" unicode="1" 
d="M64 614l209 96h39v-663h151v-47h-372v47h171v605l-182 -82z" />
    <glyph glyph-name="two" unicode="2" 
d="M260 720q102 0 156 -47.5t54 -133.5q0 -60 -32.5 -124t-100.5 -141t-226 -221v-4h387v-49h-437v68q147 138 218.5 216.5t102.5 136.5t31 118q0 64 -38.5 98t-114.5 34q-37 0 -83 -11t-76 -25l-14 50q43 17 88.5 26t84.5 9z" />
    <glyph glyph-name="three" unicode="3" 
d="M388 530q0 141 -152 141q-76 0 -153 -34l-13 47q85 36 166 36q99 0 154 -48t55 -138q0 -57 -36.5 -103.5t-93.5 -61.5q73 -11 116.5 -58.5t43.5 -116.5q0 -94 -63 -149t-175 -55q-46 0 -89 5.5t-103 21.5l15 49q60 -17 100.5 -22.5t74.5 -5.5q86 0 136 41.5t50 115.5
q0 71 -54 109t-157 38h-60v48h65q52 0 91.5 18.5t60.5 51t21 70.5z" />
    <glyph glyph-name="four" unicode="4" 
d="M369 710h50v-500h117v-48h-117v-162h-50v162h-343v47zM369 210v417l-283 -417h283z" />
    <glyph glyph-name="five" unicode="5" 
d="M223 421q128 0 193 -51.5t65 -148.5q0 -65 -30 -118.5t-84.5 -83t-125.5 -29.5q-99 0 -183 28l14 52l32 -9q71 -23 140 -23q54 0 95.5 23t64.5 64.5t23 92.5q0 85 -54 121t-169 36h-105l20 335h325v-48h-277l-17 -241h73z" />
    <glyph glyph-name="six" unicode="6" 
d="M57 292q0 187 97 298.5t287 139.5l8 -49q-160 -28 -242 -108t-96 -227q35 36 85.5 57.5t102.5 21.5q97 0 148 -53.5t51 -157.5q0 -63 -27.5 -114.5t-76 -80.5t-108.5 -29q-114 0 -171.5 76t-57.5 226zM442 213q0 81 -38 123.5t-109 42.5q-51 0 -100 -22.5t-85 -60.5
q0 -131 42.5 -195t133.5 -64q71 0 113.5 47t42.5 129z" />
    <glyph glyph-name="seven" unicode="7" 
d="M168 0h-58l346 662h-410v48h467v-40z" />
    <glyph glyph-name="eight" unicode="8" 
d="M498 193q0 -96 -61 -149.5t-164 -53.5t-162 53.5t-59 149.5q0 62 35.5 107.5t93.5 65.5q-49 18 -78 63t-29 105q0 57 25.5 99t71.5 64.5t103 22.5t103.5 -22.5t72.5 -64.5t26 -99q0 -61 -29.5 -105.5t-79.5 -61.5q60 -20 95.5 -66.5t35.5 -107.5zM423 535q0 64 -41 102
t-108 38q-66 0 -107 -38.5t-41 -101.5q0 -67 39 -107.5t109 -40.5q69 0 109 40t40 108zM445 194q0 67 -47.5 108t-123.5 41t-122.5 -41t-46.5 -108q0 -75 44 -116.5t125 -41.5q80 0 125.5 42.5t45.5 115.5z" />
    <glyph glyph-name="nine" unicode="9" 
d="M498 419q0 -188 -98 -299.5t-286 -138.5l-8 49q161 28 242.5 108t95.5 227q-37 -36 -86 -57.5t-102 -21.5q-96 0 -147.5 53.5t-51.5 157.5q0 63 27.5 115t75.5 80.5t109 28.5q113 0 171 -76t58 -226zM113 498q0 -81 37.5 -123.5t109.5 -42.5q51 0 100 22.5t85 60.5
q0 131 -43 195t-133 64q-71 0 -113.5 -47.5t-42.5 -128.5z" />
    <glyph glyph-name="colon" unicode=":" horiz-adv-x="188" 
d="M53 38q0 19 11.5 31.5t28.5 12.5q16 0 28.5 -12.5t12.5 -31.5q0 -18 -12 -30t-29 -12t-28.5 12t-11.5 30zM53 483q0 18 11.5 31t28.5 13q16 0 28.5 -12.5t12.5 -31.5q0 -18 -12 -30t-29 -12t-28.5 12t-11.5 30z" />
    <glyph glyph-name="semicolon" unicode=";" horiz-adv-x="188" 
d="M53 483q0 18 11.5 31t28.5 13q16 0 28.5 -12.5t12.5 -31.5q0 -18 -12 -30t-29 -12t-28.5 12t-11.5 30zM136 29q0 -37 -19 -71t-52 -55l-23 25q21 14 36.5 36.5t17.5 48.5q-20 0 -30.5 9.5t-10.5 24.5t9.5 26t28.5 11q20 0 31.5 -13.5t11.5 -41.5z" />
    <glyph glyph-name="less" unicode="&#x3c;" 
d="M512 520l-420 -177l420 -178v-48l-476 204v45l476 203v-49z" />
    <glyph glyph-name="equal" unicode="=" 
d="M36 229v45h476v-45h-476zM36 413v45h476v-45h-476z" />
    <glyph glyph-name="greater" unicode="&#x3e;" 
d="M36 569l476 -203v-45l-476 -204v48l420 178l-420 177v49z" />
    <glyph glyph-name="question" unicode="?" horiz-adv-x="435" 
d="M135 38q0 19 11.5 31.5t28.5 12.5q16 0 28.5 -13t12.5 -31t-12.5 -30t-28.5 -12q-17 0 -28.5 12t-11.5 30zM151 215q0 61 20.5 102.5t72.5 87.5q47 42 66.5 76.5t19.5 79.5q0 54 -33 83.5t-94 29.5q-72 0 -151 -36l-13 45q49 21 87.5 29t79.5 8q84 0 130 -40.5t46 -116.5
q0 -35 -10 -64t-29.5 -55.5t-67.5 -70.5q-43 -38 -60 -74t-17 -84h-47z" />
    <glyph glyph-name="at" unicode="@" horiz-adv-x="877" 
d="M830 389q0 -93 -27 -163.5t-75 -108t-110 -37.5q-71 0 -84 61q-22 -25 -60.5 -44t-77.5 -19q-65 0 -106.5 48t-41.5 125q0 85 30.5 147t87.5 95.5t130 33.5q72 0 138 -23l-53 -294q-5 -29 -5 -48q0 -18 11.5 -29.5t34.5 -11.5q46 0 84 32t58.5 91t20.5 140
q0 137 -81 215.5t-221 78.5q-110 0 -199 -52.5t-138 -148t-49 -216.5q0 -103 43 -178.5t121 -115t181 -39.5q49 0 108 10t101 26l15 -41q-46 -17 -108 -29t-121 -12q-116 0 -204.5 45t-136 131t-47.5 203q0 134 52.5 238t153 162.5t229.5 58.5q161 0 253.5 -89t92.5 -242z
M583 469q-39 15 -88 15q-92 0 -144.5 -59t-52.5 -167q0 -68 29.5 -102.5t81.5 -34.5q62 0 123 61z" />
    <glyph glyph-name="A" unicode="A" horiz-adv-x="610" 
d="M448 272h-290l-104 -272h-54l277 710h56l277 -710h-54zM430 320l-82 221q-9 24 -24.5 69t-17.5 51l-33 -93l-94 -248h251z" />
    <glyph glyph-name="B" unicode="B" horiz-adv-x="613" 
d="M548 196q0 -91 -57 -143.5t-153 -52.5h-234v710h210q202 0 202 -171q0 -58 -33.5 -102t-97.5 -66q75 -8 119 -55.5t44 -119.5zM462 535q0 66 -34 96.5t-109 30.5h-162v-272h137q77 0 122.5 39.5t45.5 105.5zM333 48q76 0 118 39.5t42 111.5q0 46 -20.5 78.5t-58 49.5
t-87.5 17h-170v-296h176z" />
    <glyph glyph-name="C" unicode="C" horiz-adv-x="617" 
d="M410 38q71 0 156 30l13 -48q-76 -30 -171 -30q-163 0 -252 92.5t-89 261.5q0 113 40.5 199.5t113 131.5t170.5 45q92 0 170 -29l-17 -50q-86 30 -153 30q-82 0 -142 -40t-93 -117t-33 -174q0 -92 33.5 -160t97.5 -105t156 -37z" />
    <glyph glyph-name="D" unicode="D" horiz-adv-x="729" 
d="M662 380q0 -118 -42.5 -203.5t-122 -131t-184.5 -45.5h-209v710h208q172 0 261 -82t89 -248zM606 377q0 143 -70.5 214t-214.5 71h-164v-614h142q148 0 227.5 84t79.5 245z" />
    <glyph glyph-name="E" unicode="E" horiz-adv-x="525" 
d="M104 0v710h380v-48h-327v-264h302v-48h-302v-302h327v-48h-380z" />
    <glyph glyph-name="F" unicode="F" horiz-adv-x="518" 
d="M104 0v710h380v-48h-327v-264h302v-48h-302v-350h-53z" />
    <glyph glyph-name="G" unicode="G" horiz-adv-x="702" 
d="M622 28q-35 -15 -91 -26.5t-110 -11.5q-110 0 -190 44t-122 124.5t-42 187.5q0 113 42 199t117.5 130.5t176.5 44.5q48 0 100.5 -8.5t86.5 -20.5l-18 -50q-82 30 -170 30q-85 0 -147.5 -39t-97 -116t-34.5 -174q0 -89 36 -158.5t104.5 -107.5t159.5 -38q69 0 147 23v252
h-158v48h210v-333z" />
    <glyph glyph-name="H" unicode="H" horiz-adv-x="724" 
d="M567 0v350h-410v-350h-53v710h53v-312h410v312h53v-710h-53z" />
    <glyph glyph-name="I" unicode="I" horiz-adv-x="261" 
d="M104 0v710h53v-710h-53z" />
    <glyph glyph-name="J" unicode="J" horiz-adv-x="243" 
d="M-13 -117q56 16 82 56t26 107v664h53v-669q0 -79 -39.5 -132.5t-109.5 -67.5z" />
    <glyph glyph-name="K" unicode="K" horiz-adv-x="570" 
d="M157 351v-351h-53v710h53v-349l315 349h67l-319 -352l345 -358h-70z" />
    <glyph glyph-name="L" unicode="L" horiz-adv-x="504" 
d="M157 48h327v-48h-380v710h53v-662z" />
    <glyph glyph-name="M" unicode="M" horiz-adv-x="880" 
d="M415 0l-226 543q-13 31 -37 102l1 -35l2 -66v-544h-51v710h72l235 -565q15 -36 29 -86l8 26l21 60l238 565h69v-710h-51v550l2 95l-11 -33l-23 -62l-231 -550h-47z" />
    <glyph glyph-name="N" unicode="N" horiz-adv-x="717" 
d="M613 0h-72l-342 573l-48 85q4 -72 4 -129v-529h-51v710h71l313 -524q31 -51 79 -137q-4 80 -4 115v546h50v-710z" />
    <glyph glyph-name="O" unicode="O" horiz-adv-x="801" 
d="M734 362q0 -109 -41.5 -195t-117 -131.5t-174.5 -45.5q-103 0 -178.5 43.5t-115.5 123.5t-40 187q0 109 41.5 195.5t117 133.5t175.5 47q103 0 178.5 -44t115 -125t39.5 -189zM679 364q0 91 -33 161t-96.5 108t-148.5 38q-83 0 -145.5 -40.5t-97.5 -117t-35 -169.5
q0 -91 33 -160t96 -107.5t149 -38.5q81 0 144 38.5t98.5 115t35.5 172.5z" />
    <glyph glyph-name="P" unicode="P" horiz-adv-x="583" 
d="M526 522q0 -60 -27.5 -108t-76 -74.5t-107.5 -26.5h-158v-313h-53v710h211q102 0 156.5 -48.5t54.5 -139.5zM472 522q0 66 -40 103t-115 37h-160v-303h153q74 0 118 44.5t44 118.5z" />
    <glyph glyph-name="Q" unicode="Q" horiz-adv-x="801" 
d="M734 362q0 -138 -63.5 -234.5t-173.5 -125.5q42 -23 81.5 -35.5t84.5 -12.5q58 0 115 18l11 -51q-54 -18 -131 -18q-56 0 -107 18t-130 70q-12 -1 -20 -1q-103 0 -178.5 43.5t-115.5 123.5t-40 187q0 109 41.5 195.5t116.5 133.5t176 47q103 0 178.5 -44t115 -125
t39.5 -189zM679 364q0 91 -33 161t-96.5 108t-148.5 38q-83 0 -145.5 -40.5t-97.5 -117t-35 -169.5q0 -91 33 -160t96 -107.5t149 -38.5q81 0 143.5 38.5t98.5 115t36 172.5z" />
    <glyph glyph-name="R" unicode="R" horiz-adv-x="599" 
d="M526 530q0 -74 -40 -127t-108 -73l221 -330h-63l-210 320q-31 -1 -58 -1h-111v-319h-53v710h220q102 0 152 -44.5t50 -135.5zM472 530q0 68 -35 100t-108 32h-172v-297h153q76 0 119 44t43 121z" />
    <glyph glyph-name="S" unicode="S" horiz-adv-x="522" 
d="M465 176q0 -83 -58 -134.5t-153 -51.5q-113 0 -204 31l17 52q54 -20 94.5 -27.5t91.5 -7.5q71 0 115 38.5t44 98.5q0 45 -16 72.5t-53 53.5t-103 53q-94 39 -135 88t-41 122q0 70 51.5 113t138.5 43q44 0 82.5 -6t87.5 -22l-15 -48q-85 30 -156 30q-66 0 -101.5 -31
t-35.5 -82q0 -42 16 -70t52.5 -52.5t98.5 -49.5q99 -41 140.5 -90t41.5 -123z" />
    <glyph glyph-name="T" unicode="T" horiz-adv-x="515" 
d="M284 663v-663h-51v663h-220v47h489v-47h-218z" />
    <glyph glyph-name="U" unicode="U" horiz-adv-x="680" 
d="M593 219q0 -104 -68.5 -166.5t-185.5 -62.5q-116 0 -184.5 62t-68.5 168v490h52v-477q0 -91 54 -144t147 -53q94 0 147.5 51.5t53.5 141.5v481h53v-491z" />
    <glyph glyph-name="V" unicode="V" horiz-adv-x="588" 
d="M330 0h-49l-280 710h56l222 -564q21 -62 26 -83q12 49 26 85l204 562h54z" />
    <glyph glyph-name="W" unicode="W" horiz-adv-x="983" 
d="M480 633q-4 -18 -9.5 -40t-176.5 -593h-63l-191 710h55l150 -567l13 -57l6 -33l7 33l16 59l166 565h55l166 -565q11 -35 20 -80l3 -12l2 10q12 61 17 80l150 567h55l-191 -710h-63l-168 557z" />
    <glyph glyph-name="X" unicode="X" horiz-adv-x="618" 
d="M309 402l202 308h62l-231 -346l244 -364h-62l-215 326l-214 -326h-62l243 364l-230 346h61z" />
    <glyph glyph-name="Y" unicode="Y" horiz-adv-x="553" 
d="M13 710h61l202 -327l202 327h62l-238 -372v-338h-52v339z" />
    <glyph glyph-name="Z" unicode="Z" horiz-adv-x="575" 
d="M534 0h-493v44l420 618h-402v48h463v-43l-419 -619h431v-48z" />
    <glyph glyph-name="bracketleft" unicode="[" horiz-adv-x="310" 
d="M97 -167v935h172v-47h-122v-841h122v-47h-172z" />
    <glyph glyph-name="backslash" unicode="\" horiz-adv-x="398" 
d="M22 768h48l305 -849h-48z" />
    <glyph glyph-name="bracketright" unicode="]" horiz-adv-x="310" 
d="M40 -167v47h123v841h-122v47h173v-935h-174z" />
    <glyph glyph-name="asciicircum" unicode="^" 
d="M49 292l202 476h45l204 -476h-48l-178 420l-177 -420h-48z" />
    <glyph glyph-name="underscore" unicode="_" horiz-adv-x="584" 
d="M-2 -152v45h588v-45h-588z" />
    <glyph glyph-name="grave" unicode="`" horiz-adv-x="500" 
d="M258 606l-143 122l39 38l132 -139z" />
    <glyph glyph-name="a" unicode="a" horiz-adv-x="528" 
d="M402 0l-7 48q-89 -58 -185 -58q-79 0 -122.5 39t-43.5 107q0 93 81 135t268 47v62q0 60 -36 95.5t-98 35.5q-71 0 -147 -30l-15 45q74 31 166 31q83 0 131.5 -46.5t48.5 -125.5v-385h-41zM393 274q-107 -3 -171 -17.5t-94.5 -43.5t-30.5 -78q0 -45 32 -72t84 -27
q93 0 180 55v183z" />
    <glyph glyph-name="b" unicode="b" horiz-adv-x="587" 
d="M526 280q0 -88 -29.5 -153.5t-84 -101t-125.5 -35.5q-56 0 -100.5 7.5t-96.5 25.5v745h50v-265q77 54 165 54q113 0 167 -69t54 -208zM473 280q0 116 -41 173.5t-132 57.5q-42 0 -85.5 -16t-74.5 -41v-395q72 -23 148 -23q53 0 95.5 29.5t66 84.5t23.5 130z" />
    <glyph glyph-name="c" unicode="c" horiz-adv-x="474" 
d="M409 488q-26 8 -56.5 15.5t-67.5 7.5q-78 0 -124.5 -63t-46.5 -174q0 -238 185 -238q29 0 65.5 7.5t67.5 19.5l11 -45q-24 -11 -66 -19.5t-80 -8.5q-116 0 -176 73t-60 211q0 130 60.5 206.5t162.5 76.5q68 0 138 -21z" />
    <glyph glyph-name="d" unicode="d" horiz-adv-x="587" 
d="M61 266q0 134 64.5 212.5t174.5 78.5q40 0 69.5 -8t77.5 -35v254h50v-768h-40l-8 48q-43 -31 -82.5 -44.5t-81.5 -13.5q-114 0 -169 69t-55 207zM114 266q0 -116 41.5 -173t131.5 -57q41 0 83.5 16t76.5 44v366q-52 32 -81.5 40.5t-66.5 8.5q-54 0 -96 -30t-65.5 -85
t-23.5 -130z" />
    <glyph glyph-name="e" unicode="e" horiz-adv-x="540" 
d="M479 271h-365q0 -114 48.5 -174.5t144.5 -60.5q73 0 164 39l12 -47q-39 -17 -87 -27.5t-94 -10.5q-118 0 -179.5 71t-61.5 205q0 140 55.5 215.5t158.5 75.5q99 0 151.5 -62t52.5 -182v-42zM425 317q0 96 -37.5 145t-111.5 49q-71 0 -112 -48.5t-49 -145.5h310z" />
    <glyph glyph-name="f" unicode="f" horiz-adv-x="329" 
d="M117 547v67q0 78 29 116t89 38q51 0 100 -15l-13 -46q-43 14 -84 14q-37 0 -53.5 -27t-16.5 -82v-65h145v-47h-145v-500h-51v500h-93v47h93z" />
    <glyph glyph-name="g" unicode="g" horiz-adv-x="587" 
d="M114 267q0 -118 41.5 -174.5t131.5 -56.5q83 0 160 57v398q-70 20 -148 20q-82 0 -133.5 -66.5t-51.5 -177.5zM447 44q-77 -54 -165 -54q-115 0 -168 69.5t-53 207.5q0 135 65 212.5t174 77.5q89 0 197 -30v-563q0 -91 -61 -143.5t-171 -52.5q-80 0 -170 26l15 46
q75 -28 154 -28q87 0 135 41t48 118v73z" />
    <glyph glyph-name="h" unicode="h" horiz-adv-x="578" 
d="M443 0v377q0 63 -31.5 98.5t-90.5 35.5q-51 0 -92.5 -13t-88.5 -44v-454h-50v768h50v-266q50 32 90.5 43.5t96.5 11.5q77 0 121.5 -47t44.5 -128v-382h-50z" />
    <glyph glyph-name="i" unicode="i" horiz-adv-x="230" 
d="M90 0v547h50v-547h-50zM78 714q0 15 11 26.5t26 11.5q16 0 27 -11.5t11 -26.5q0 -16 -11 -26.5t-27 -10.5q-15 0 -26 10.5t-11 26.5z" />
    <glyph glyph-name="j" unicode="j" horiz-adv-x="230" 
d="M78 714q0 15 11 26.5t26 11.5q16 0 27 -11.5t11 -26.5q0 -16 -11 -26.5t-27 -10.5q-15 0 -26 10.5t-11 26.5zM90 547h50v-577q0 -80 -40 -133t-109 -67l-12 42q111 33 111 165v570z" />
    <glyph glyph-name="k" unicode="k" horiz-adv-x="488" 
d="M413 0l-273 288v-288h-50v768h50v-477l250 256h71l-255 -256l278 -291h-71z" />
    <glyph glyph-name="l" unicode="l" horiz-adv-x="230" 
d="M90 0v768h50v-768h-50z" />
    <glyph glyph-name="m" unicode="m" horiz-adv-x="888" 
d="M806 0h-50v377q0 134 -107 134q-49 0 -93.5 -15t-90.5 -49q8 -28 8 -64v-383h-50v377q0 134 -107 134q-50 0 -92 -14t-84 -43v-454h-50v547h40l10 -46q41 29 83 42.5t94 13.5q95 0 133 -70q56 38 100.5 54t102.5 16q74 0 113.5 -46t39.5 -129v-382z" />
    <glyph glyph-name="n" unicode="n" horiz-adv-x="578" 
d="M493 0h-50v377q0 63 -31.5 98.5t-90.5 35.5q-51 0 -92.5 -13t-88.5 -44v-454h-50v547h40l10 -46q46 31 86.5 43.5t100.5 12.5q77 0 121.5 -47t44.5 -128v-382z" />
    <glyph glyph-name="o" unicode="o" horiz-adv-x="600" 
d="M300 36q89 0 137.5 63t48.5 174q0 112 -48.5 175t-137.5 63q-87 0 -136.5 -62t-49.5 -176q0 -113 49.5 -175t136.5 -62zM300 -10q-114 0 -176.5 74.5t-62.5 208.5t62.5 209t176.5 75t176.5 -75t62.5 -209t-62 -208.5t-177 -74.5z" />
    <glyph glyph-name="p" unicode="p" horiz-adv-x="587" 
d="M526 280q0 -134 -65 -211t-174 -77q-83 0 -147 18v-231h-50v768h40l8 -47q79 57 167 57q113 0 167 -69t54 -208zM473 280q0 116 -41 173.5t-132 57.5q-40 0 -83.5 -16t-76.5 -42v-393q37 -12 69.5 -17t78.5 -5q54 0 96 29.5t65.5 83.5t23.5 129z" />
    <glyph glyph-name="q" unicode="q" horiz-adv-x="587" 
d="M61 267q0 88 29.5 154t84 101t125.5 35q85 0 197 -30v-748h-50v265q-76 -54 -165 -54q-114 0 -167.5 69t-53.5 208zM114 267q0 -116 41 -173.5t132 -57.5q41 0 84.5 16t75.5 41v398q-76 20 -148 20q-54 0 -96.5 -30t-65.5 -85t-23 -129z" />
    <glyph glyph-name="r" unicode="r" horiz-adv-x="337" 
d="M90 547h40l7 -68q33 44 65.5 61t78.5 17q28 0 46 -4l-8 -50q-18 6 -48 6q-39 0 -69.5 -20.5t-61.5 -66.5v-422h-50v547z" />
    <glyph glyph-name="s" unicode="s" horiz-adv-x="420" 
d="M367 145q0 -69 -47.5 -112t-125.5 -43q-80 0 -149 21l11 48q28 -9 62 -17t79 -8q54 0 87.5 29.5t33.5 76.5q0 31 -12 50.5t-38 37.5t-69 34q-74 27 -109.5 64t-35.5 93q0 63 40.5 100.5t111.5 37.5q30 0 67.5 -5.5t62.5 -11.5l-11 -47q-27 7 -56.5 13t-63.5 6
q-48 0 -75.5 -24.5t-27.5 -65.5q0 -32 12 -51.5t39 -36t71 -31.5q143 -50 143 -158z" />
    <glyph glyph-name="t" unicode="t" horiz-adv-x="342" 
d="M163 500v-380q0 -46 17 -65t48 -19q35 0 89 13l9 -44q-51 -15 -103 -15q-111 0 -111 120v390h-88v47h88l6 123h45v-123h147v-47h-147z" />
    <glyph glyph-name="u" unicode="u" horiz-adv-x="578" 
d="M85 547h50v-377q0 -65 32.5 -99.5t92.5 -34.5q51 0 92 13.5t86 43.5v454h50v-547h-40l-10 46q-48 -32 -88.5 -44t-94.5 -12q-80 0 -125 46.5t-45 128.5v382z" />
    <glyph glyph-name="v" unicode="v" horiz-adv-x="434" 
d="M187 0l-187 547h53l164 -486l164 486h53l-187 -547h-60z" />
    <glyph glyph-name="w" unicode="w" horiz-adv-x="765" 
d="M192 0l-177 547h53l152 -489l136 489h53l136 -488l152 488h53l-177 -547h-60l-131 471l-132 -471h-58z" />
    <glyph glyph-name="x" unicode="x" horiz-adv-x="458" 
d="M259 289l189 -289h-59l-160 249l-161 -249h-58l188 285l-168 262h57l141 -223l141 223h57z" />
    <glyph glyph-name="y" unicode="y" horiz-adv-x="445" 
d="M53 -232q-35 0 -53 4l8 50q18 -5 48 -5q44 0 77 36t63 116l11 30l-196 548h53l168 -477l160 477h53l-200 -585q-36 -105 -81.5 -149.5t-110.5 -44.5z" />
    <glyph glyph-name="z" unicode="z" horiz-adv-x="457" 
d="M424 0h-385v36l300 464h-283v47h350v-36l-300 -463h318v-48z" />
    <glyph glyph-name="braceleft" unicode="{" horiz-adv-x="341" 
d="M331 730h-45q-37 0 -59 -11t-31.5 -33t-9.5 -68v-194q0 -51 -18 -82t-59 -41v-2q41 -10 59 -40.5t18 -82.5v-182q0 -49 10 -71t31.5 -33t58.5 -11h45v-47h-50q-75 0 -109.5 38.5t-34.5 114.5v190q0 54 -28 78.5t-97 24.5v44q70 0 97.5 24t27.5 76v203q0 75 34.5 113.5
t109.5 38.5h50v-47z" />
    <glyph glyph-name="bar" unicode="|" horiz-adv-x="584" 
d="M314 -232h-45v1000h45v-1000z" />
    <glyph glyph-name="braceright" unicode="}" horiz-adv-x="341" 
d="M12 -121h45q37 0 59 11t31.5 32.5t9.5 68.5v194q0 51 18 82t59 41v2q-41 10 -59 41t-18 82v182q0 49 -9.5 71t-31.5 33t-59 11h-45v47h50q75 0 109.5 -38.5t34.5 -114.5v-190q0 -56 28 -79.5t97 -23.5v-44q-68 0 -96.5 -23t-28.5 -77v-203q0 -75 -34.5 -113.5
t-109.5 -38.5h-50v47z" />
    <glyph glyph-name="asciitilde" unicode="~" 
d="M388 294q-28 0 -56.5 8t-57.5 18t-57.5 18t-56.5 8q-30 0 -63 -14.5t-61 -37.5v48q27 23 60.5 36.5t63.5 13.5t59 -8t57 -18t56 -18t56 -8q30 0 63 14.5t61 37.5v-49q-27 -23 -61 -36t-63 -13z" />
    <glyph glyph-name="uni00A0" unicode="&#xa0;" horiz-adv-x="230" 
 />
    <glyph glyph-name="exclamdown" unicode="&#xa1;" horiz-adv-x="270" 
d="M167 -177h-62l9 495h42zM95 495q0 18 11.5 30t28.5 12t29 -12t12 -30q0 -19 -12.5 -31.5t-28.5 -12.5q-17 0 -28.5 13t-11.5 31z" />
    <glyph glyph-name="cent" unicode="&#xa2;" 
d="M434 567q-68 22 -124 22q-79 0 -122.5 -60.5t-43.5 -166.5q0 -116 43 -172t137 -56q30 0 67.5 7.5t65.5 18.5l11 -45q-61 -24 -125 -27v-98h-45v98q-75 5 -118.5 35t-66 88.5t-22.5 150.5q0 123 55 195.5t152 77.5v85h45v-86q49 -4 104 -20z" />
    <glyph glyph-name="sterling" unicode="&#xa3;" 
d="M364 720q43 0 79 -8.5t72 -19.5l-15 -48q-50 18 -80.5 24t-60.5 6q-73 0 -108.5 -48t-35.5 -146v-106h192v-45h-192v-143q0 -40 -12.5 -73.5t-43.5 -67.5h366v-45h-456v45h38q25 21 41.5 59.5t16.5 81.5v143h-96v44h96v108q0 116 50 177.5t149 61.5z" />
    <glyph glyph-name="currency" unicode="&#xa4;" 
d="M434 393q0 -53 -32 -95l91 -91l-31 -31l-91 90q-47 -34 -98 -34q-54 0 -97 32l-88 -88l-32 31l88 89q-32 42 -32 97q0 54 33 98l-89 90l32 32l89 -90q42 31 96 31t97 -33l92 92l31 -32l-91 -91q32 -49 32 -97zM388 393q0 49 -34.5 82t-80.5 33q-47 0 -81 -33.5t-34 -81.5
q0 -47 33.5 -81t81.5 -34q47 0 81 33.5t34 81.5z" />
    <glyph glyph-name="yen" unicode="&#xa5;" 
d="M65 360h163l-200 350h55l171 -300l21 -42l21 43l169 299h56l-200 -350h164v-45h-185v-113h185v-45h-185v-157h-50v157h-185v45h185v113h-185v45z" />
    <glyph glyph-name="brokenbar" unicode="&#xa6;" horiz-adv-x="584" 
d="M316 376h-48v452h48v-452zM316 -267h-48v452h48v-452z" />
    <glyph glyph-name="section" unicode="&#xa7;" horiz-adv-x="492" 
d="M397 59q0 -62 -48 -97.5t-131 -35.5q-78 0 -149 21l11 47q70 -24 141 -24q60 0 93.5 23t33.5 64q0 28 -10.5 45.5t-36 35.5t-72.5 41q-66 33 -94.5 55t-41 46.5t-12.5 57.5q0 45 31.5 76t83.5 40q-102 52 -102 141q0 57 44.5 91t117.5 34q31 0 71 -5.5t65 -11.5l-11 -46
q-69 18 -126 18q-51 0 -81.5 -21.5t-30.5 -57.5q0 -42 29.5 -71t90.5 -56q82 -37 114.5 -72t32.5 -84q0 -47 -28 -79t-76 -46q53 -32 72 -58.5t19 -70.5zM361 308q0 39 -24.5 64.5t-92.5 55.5q-115 -12 -115 -90q0 -37 27.5 -63t96.5 -59q53 5 80.5 30.5t27.5 61.5z" />
    <glyph glyph-name="dieresis" unicode="&#xa8;" horiz-adv-x="500" 
d="M121 670q0 21 11.5 30.5t26.5 9.5q16 0 27 -9.5t11 -30.5q0 -20 -11 -30.5t-27 -10.5q-15 0 -26.5 10.5t-11.5 30.5zM302 670q0 39 38 40q15 0 26.5 -9.5t11.5 -30.5q0 -20 -11 -30.5t-27 -10.5q-17 0 -27.5 10.5t-10.5 30.5z" />
    <glyph glyph-name="copyright" unicode="&#xa9;" horiz-adv-x="864" 
d="M67 355q0 97 49 182.5t134 134t182 48.5t182 -49t134 -134t49 -182q0 -96 -47.5 -180t-133 -134.5t-184.5 -50.5q-100 0 -185 51t-132.5 135t-47.5 179zM113 355q0 -85 43 -159.5t117 -117t159 -42.5q86 0 160 43t116.5 117t42.5 159t-42.5 159t-116.5 117t-160 43
q-85 0 -159 -42.5t-117 -117t-43 -159.5zM544 516q-59 17 -108 17q-71 0 -110.5 -45.5t-39.5 -125.5q0 -170 157 -170q54 0 123 21l11 -40q-61 -26 -134 -26q-101 0 -154.5 55.5t-53.5 159.5q0 97 55.5 156t144.5 59q55 0 122 -18z" />
    <glyph glyph-name="ordfeminine" unicode="&#xaa;" horiz-adv-x="415" 
d="M314 341l-7 32q-60 -39 -124 -39q-53 0 -82.5 28t-29.5 75q0 63 54.5 91.5t179.5 32.5v36q0 40 -24 62.5t-63 22.5q-48 0 -99 -20l-13 37q55 22 115 22q59 0 94 -31.5t35 -87.5v-261h-36zM305 526q-100 -3 -144 -24t-44 -66q0 -28 20 -46t52 -18q60 0 116 35v119z" />
    <glyph glyph-name="guillemotleft" unicode="&#xab;" horiz-adv-x="450" 
d="M277 81h-56l-185 179v6l185 179h56l-184 -182zM475 81h-56l-185 179v6l185 179h56l-184 -182z" />
    <glyph glyph-name="logicalnot" unicode="&#xac;" 
d="M512 135h-45v186h-431v45h476v-231z" />
    <glyph glyph-name="uni00AD" unicode="&#xad;" horiz-adv-x="379" 
d="M55 247v46h281v-46h-281z" />
    <glyph glyph-name="registered" unicode="&#xae;" horiz-adv-x="560" 
d="M50 490q0 62 31 115.5t84 84t115 30.5q61 0 114.5 -30.5t84.5 -84.5t31 -115q0 -62 -31 -115.5t-84.5 -84t-114.5 -30.5q-62 0 -115.5 31t-84 84.5t-30.5 114.5zM90 490q0 -51 25 -95t69 -69.5t96 -25.5q51 0 95 25.5t69.5 69.5t25.5 95q0 52 -25.5 95.5t-69.5 69
t-95 25.5t-95 -25.5t-69.5 -69.5t-25.5 -95zM364 551q0 -26 -14.5 -45t-43.5 -23l75 -107h-41l-66 98h-36v-98h-36v235h82q80 0 80 -60zM327 551q0 29 -54 29h-35v-75h28q31 0 46 10.5t15 35.5z" />
    <glyph glyph-name="macron" unicode="&#xaf;" horiz-adv-x="500" 
d="M116 629v42h268v-42h-268z" />
    <glyph glyph-name="degree" unicode="&#xb0;" horiz-adv-x="295" 
d="M25 597q0 52 36 87.5t86 35.5t86.5 -36t36.5 -87t-36.5 -86.5t-86.5 -35.5t-86 35t-36 87zM68 597q0 -33 22 -56t57 -23q34 0 57 23t23 56t-23.5 56.5t-56.5 23.5q-34 0 -56.5 -23.5t-22.5 -56.5z" />
    <glyph glyph-name="plusminus" unicode="&#xb1;" 
d="M296 321v-216h-45v216h-215v45h215v216h45v-216h216v-45h-216zM512 45v-45h-476v45h476z" />
    <glyph glyph-name="uni00B2" unicode="&#xb2;" horiz-adv-x="330" 
d="M156 716q58 0 90 -24t32 -70t-41 -95t-149 -130v-2h202v-39h-251v47q121 95 156 136.5t35 78.5q0 60 -76 60q-39 0 -90 -19l-11 38q50 19 103 19z" />
    <glyph glyph-name="uni00B3" unicode="&#xb3;" horiz-adv-x="330" 
d="M221 619q0 59 -78 59q-39 0 -84 -17l-11 37q48 18 98 18q58 0 90 -23t32 -68q0 -30 -20 -53.5t-52 -30.5q40 -7 63.5 -29.5t23.5 -56.5q0 -48 -37.5 -76t-103.5 -28q-59 0 -108 15l12 38q50 -15 97 -15q94 0 94 67q0 33 -29 49t-80 16h-36v36h38q42 0 66.5 17t24.5 45z
" />
    <glyph glyph-name="acute" unicode="&#xb4;" horiz-adv-x="500" 
d="M203 627l132 139l39 -38l-143 -122z" />
    <glyph glyph-name="uni00B5" unicode="&#xb5;" horiz-adv-x="578" 
d="M85 547h50v-357q0 -73 38 -113.5t105 -40.5q89 0 160 77v434h50v-547h-40l-10 61q-68 -71 -162 -71q-47 0 -84.5 18t-56.5 47v-276h-50v768z" />
    <glyph glyph-name="paragraph" unicode="&#xb6;" horiz-adv-x="582" 
d="M478 -145h-51v807h-107v-807h-51v416q-104 0 -154 52t-50 169q0 112 50.5 165t154.5 53h208v-855z" />
    <glyph glyph-name="periodcentered" unicode="&#xb7;" horiz-adv-x="188" 
d="M53 283q0 18 11.5 31t28.5 13q16 0 28.5 -12.5t12.5 -31.5q0 -18 -12 -30t-29 -12q-16 0 -28 12t-12 30z" />
    <glyph glyph-name="cedilla" unicode="&#xb8;" horiz-adv-x="500" 
d="M352 -134q0 -79 -87 -79q-16 0 -36.5 4t-27.5 8l9 37q29 -10 56 -10q42 0 42 39q0 24 -18.5 36.5t-75.5 22.5l48 76h47l-34 -53q37 -9 57 -30t20 -51z" />
    <glyph glyph-name="uni00B9" unicode="&#xb9;" horiz-adv-x="330" 
d="M45 662l126 49h27v-319h86v-36h-227v36h97v273l-97 -38z" />
    <glyph glyph-name="ordmasculine" unicode="&#xba;" horiz-adv-x="446" 
d="M222 370q56 0 86.5 39.5t30.5 113.5t-30.5 114t-86.5 40t-87 -40t-31 -114t31 -113.5t87 -39.5zM222 330q-79 0 -122.5 51t-43.5 142q0 92 44 143t122 51q79 0 122 -51.5t43 -142.5q0 -90 -42.5 -141.5t-122.5 -51.5z" />
    <glyph glyph-name="guillemotright" unicode="&#xbb;" horiz-adv-x="450" 
d="M234 445h56l185 -179v-6l-185 -179h-56l184 182zM36 445h56l185 -179v-6l-185 -179h-56l184 182z" />
    <glyph glyph-name="onequarter" unicode="&#xbc;" horiz-adv-x="672" 
d="M140 0h-50l483 710h49zM534 355h41v-243h63v-38h-63v-74h-42v74h-182v41zM533 112v180l-134 -180h134zM35 662l126 49h27v-319h86v-36h-227v36h97v273l-97 -38z" />
    <glyph glyph-name="onehalf" unicode="&#xbd;" horiz-adv-x="672" 
d="M140 0h-50l483 710h49zM35 662l126 49h27v-319h86v-36h-227v36h97v273l-97 -38zM523 360q58 0 90 -24t32 -70t-41 -95t-149 -130v-2h202v-39h-251v47q121 95 156 136.5t35 78.5q0 60 -76 60q-39 0 -90 -19l-11 38q50 19 103 19z" />
    <glyph glyph-name="threequarters" unicode="&#xbe;" horiz-adv-x="672" 
d="M140 0h-50l483 710h49zM528 355h41v-243h63v-38h-63v-74h-42v74h-182v41zM527 112v180l-134 -180h134zM235 619q0 59 -78 59q-38 0 -84 -17l-11 37q48 18 98 18q58 0 90 -23t32 -68q0 -30 -20 -53.5t-52 -30.5q40 -7 63.5 -29.5t23.5 -56.5q0 -48 -37 -76t-104 -28
q-59 0 -108 15l12 38q50 -15 97 -15q94 0 94 67q0 33 -29 49t-80 16h-36v36h38q42 0 66.5 17t24.5 45z" />
    <glyph glyph-name="questiondown" unicode="&#xbf;" horiz-adv-x="435" 
d="M300 495q0 -18 -11.5 -31t-28.5 -13q-16 0 -28.5 12.5t-12.5 31.5q0 18 12 30t29 12t28.5 -12t11.5 -30zM284 318q0 -61 -20.5 -103t-72.5 -87q-45 -41 -65.5 -75.5t-20.5 -80.5q0 -55 33 -84t94 -29q70 0 151 36l13 -45q-49 -21 -87.5 -29t-79.5 -8q-84 0 -130 40.5
t-46 116.5q0 35 10 64t29.5 56t67.5 70q43 39 60 74t17 84h47z" />
    <glyph glyph-name="Agrave" unicode="&#xc0;" horiz-adv-x="610" 
d="M448 272h-290l-104 -272h-54l277 710h56l277 -710h-54zM430 320l-82 221q-9 24 -24.5 69t-17.5 51l-33 -93l-94 -248h251zM325 766l-154 105l45 36l135 -122z" />
    <glyph glyph-name="Aacute" unicode="&#xc1;" horiz-adv-x="610" 
d="M448 272h-290l-104 -272h-54l277 710h56l277 -710h-54zM430 320l-82 221q-9 24 -24.5 69t-17.5 51l-33 -93l-94 -248h251zM261 785l135 122l45 -36l-154 -105z" />
    <glyph glyph-name="Acircumflex" unicode="&#xc2;" horiz-adv-x="610" 
d="M448 272h-290l-104 -272h-54l277 710h56l277 -710h-54zM430 320l-82 221q-9 24 -24.5 69t-17.5 51l-33 -93l-94 -248h251zM414 766l-107 83l-106 -83l-28 13l118 120h33l118 -120z" />
    <glyph glyph-name="Atilde" unicode="&#xc3;" horiz-adv-x="610" 
d="M448 272h-290l-104 -272h-54l277 710h56l277 -710h-54zM430 320l-82 221q-9 24 -24.5 69t-17.5 51l-33 -93l-94 -248h251zM370 835q18 0 35 9.5t41 36.5l22 -35q-18 -25 -44.5 -40t-50.5 -15q-18 0 -35 6.5t-33 14.5t-32.5 14.5t-32.5 6.5q-36 0 -70 -47l-27 35
q20 27 46 42t52 15q17 0 35 -7t34.5 -15t32 -14.5t27.5 -6.5z" />
    <glyph glyph-name="Adieresis" unicode="&#xc4;" horiz-adv-x="610" 
d="M448 272h-290l-104 -272h-54l277 710h56l277 -710h-54zM430 320l-82 221q-9 24 -24.5 69t-17.5 51l-33 -93l-94 -248h251zM177 827q0 21 11.5 30.5t26.5 9.5q16 0 27 -9.5t11 -30.5q0 -20 -11 -30.5t-27 -10.5q-15 0 -26.5 10.5t-11.5 30.5zM358 827q0 21 10.5 30.5
t27.5 9.5q15 0 26.5 -9.5t11.5 -30.5q0 -20 -11.5 -30.5t-26.5 -10.5q-17 0 -27.5 10.5t-10.5 30.5z" />
    <glyph glyph-name="Aring" unicode="&#xc5;" horiz-adv-x="610" 
d="M448 272h-290l-104 -272h-54l277 710h56l277 -710h-54zM430 320l-82 221q-9 24 -24.5 69t-17.5 51l-33 -93l-94 -248h251zM222 756q0 35 24 60t60 25q35 0 60 -25t25 -60q0 -36 -25.5 -60t-59.5 -24q-36 0 -60 24t-24 60zM260 756q0 -19 13 -32t33 -13t32.5 13t12.5 32
q0 20 -12.5 33t-32.5 13t-33 -13t-13 -33z" />
    <glyph glyph-name="AE" unicode="&#xc6;" horiz-adv-x="815" 
d="M394 0v272h-196l-142 -272h-56l370 710h404v-48h-327v-264h302v-48h-302v-302h327v-48h-380zM394 320v349l-14 -35l-23 -51l-134 -263h171z" />
    <glyph glyph-name="Ccedilla" unicode="&#xc7;" horiz-adv-x="617" 
d="M410 38q71 0 156 30l13 -48q-76 -30 -171 -30q-163 0 -252 92.5t-89 261.5q0 113 40.5 199.5t113 131.5t170.5 45q92 0 170 -29l-17 -50q-86 30 -153 30q-82 0 -142 -40t-93 -117t-33 -174q0 -92 33.5 -160t97.5 -105t156 -37zM444 -134q0 -79 -87 -79q-16 0 -36.5 4
t-27.5 8l9 37q29 -10 56 -10q42 0 42 39q0 24 -18.5 36.5t-75.5 22.5l48 76h47l-34 -53q37 -9 57 -30t20 -51z" />
    <glyph glyph-name="Egrave" unicode="&#xc8;" horiz-adv-x="525" 
d="M104 0v710h380v-48h-327v-264h302v-48h-302v-302h327v-48h-380zM335 766l-154 105l45 36l135 -122z" />
    <glyph glyph-name="Eacute" unicode="&#xc9;" horiz-adv-x="525" 
d="M104 0v710h380v-48h-327v-264h302v-48h-302v-302h327v-48h-380zM251 785l135 122l45 -36l-154 -105z" />
    <glyph glyph-name="Ecircumflex" unicode="&#xca;" horiz-adv-x="525" 
d="M104 0v710h380v-48h-327v-264h302v-48h-302v-302h327v-48h-380zM404 766l-107 83l-106 -83l-28 13l118 120h33l118 -120z" />
    <glyph glyph-name="Edieresis" unicode="&#xcb;" horiz-adv-x="525" 
d="M104 0v710h380v-48h-327v-264h302v-48h-302v-302h327v-48h-380zM172 827q0 21 11.5 30.5t26.5 9.5q16 0 27 -9.5t11 -30.5q0 -20 -11 -30.5t-27 -10.5q-15 0 -26.5 10.5t-11.5 30.5zM353 827q0 21 10.5 30.5t27.5 9.5q15 0 26.5 -9.5t11.5 -30.5q0 -20 -11.5 -30.5
t-26.5 -10.5q-17 0 -27.5 10.5t-10.5 30.5z" />
    <glyph glyph-name="Igrave" unicode="&#xcc;" horiz-adv-x="261" 
d="M104 0v710h53v-710h-53zM142 766l-154 105l45 36l135 -122z" />
    <glyph glyph-name="Iacute" unicode="&#xcd;" horiz-adv-x="261" 
d="M104 0v710h53v-710h-53zM100 785l135 122l45 -36l-154 -105z" />
    <glyph glyph-name="Icircumflex" unicode="&#xce;" horiz-adv-x="261" 
d="M104 0v710h53v-710h-53zM238 766l-107 83l-106 -83l-28 13l118 120h33l118 -120z" />
    <glyph glyph-name="Idieresis" unicode="&#xcf;" horiz-adv-x="261" 
d="M104 0v710h53v-710h-53zM3 827q0 21 11.5 30.5t26.5 9.5q16 0 27 -9.5t11 -30.5q0 -20 -11 -30.5t-27 -10.5q-15 0 -26.5 10.5t-11.5 30.5zM184 827q0 21 10.5 30.5t27.5 9.5q15 0 26.5 -9.5t11.5 -30.5q0 -20 -11.5 -30.5t-26.5 -10.5q-17 0 -27.5 10.5t-10.5 30.5z" />
    <glyph glyph-name="Eth" unicode="&#xd0;" horiz-adv-x="729" 
d="M662 380q0 -118 -42.5 -203.5t-122 -131t-184.5 -45.5h-209v341h-101v48h101v321h208q172 0 261 -82t89 -248zM606 377q0 143 -70.5 214t-214.5 71h-164v-273h204v-48h-204v-293h142q148 0 227.5 84t79.5 245z" />
    <glyph glyph-name="Ntilde" unicode="&#xd1;" horiz-adv-x="717" 
d="M613 0h-72l-342 573l-48 85q4 -72 4 -129v-529h-51v710h71l313 -524q31 -51 79 -137q-4 80 -4 115v546h50v-710zM423 835q18 0 35 9.5t41 36.5l22 -35q-18 -25 -44.5 -40t-50.5 -15q-18 0 -35 6.5t-33 14.5t-32.5 14.5t-32.5 6.5q-36 0 -70 -47l-27 35q20 27 46 42t52 15
q17 0 35 -7t34.5 -15t32 -14.5t27.5 -6.5z" />
    <glyph glyph-name="Ograve" unicode="&#xd2;" horiz-adv-x="801" 
d="M734 362q0 -109 -41.5 -195t-117 -131.5t-174.5 -45.5q-103 0 -178.5 43.5t-115.5 123.5t-40 187q0 109 41.5 195.5t117 133.5t175.5 47q103 0 178.5 -44t115 -125t39.5 -189zM679 364q0 91 -33 161t-96.5 108t-148.5 38q-83 0 -145.5 -40.5t-97.5 -117t-35 -169.5
q0 -91 33 -160t96 -107.5t149 -38.5q81 0 144 38.5t98.5 115t35.5 172.5zM411 766l-154 105l45 36l135 -122z" />
    <glyph glyph-name="Oacute" unicode="&#xd3;" horiz-adv-x="801" 
d="M734 362q0 -109 -41.5 -195t-117 -131.5t-174.5 -45.5q-103 0 -178.5 43.5t-115.5 123.5t-40 187q0 109 41.5 195.5t117 133.5t175.5 47q103 0 178.5 -44t115 -125t39.5 -189zM679 364q0 91 -33 161t-96.5 108t-148.5 38q-83 0 -145.5 -40.5t-97.5 -117t-35 -169.5
q0 -91 33 -160t96 -107.5t149 -38.5q81 0 144 38.5t98.5 115t35.5 172.5zM364 785l135 122l45 -36l-154 -105z" />
    <glyph glyph-name="Ocircumflex" unicode="&#xd4;" horiz-adv-x="801" 
d="M734 362q0 -109 -41.5 -195t-117 -131.5t-174.5 -45.5q-103 0 -178.5 43.5t-115.5 123.5t-40 187q0 109 41.5 195.5t117 133.5t175.5 47q103 0 178.5 -44t115 -125t39.5 -189zM679 364q0 91 -33 161t-96.5 108t-148.5 38q-83 0 -145.5 -40.5t-97.5 -117t-35 -169.5
q0 -91 33 -160t96 -107.5t149 -38.5q81 0 144 38.5t98.5 115t35.5 172.5zM507 766l-107 83l-106 -83l-28 13l118 120h33l118 -120z" />
    <glyph glyph-name="Otilde" unicode="&#xd5;" horiz-adv-x="801" 
d="M734 362q0 -109 -41.5 -195t-117 -131.5t-174.5 -45.5q-103 0 -178.5 43.5t-115.5 123.5t-40 187q0 109 41.5 195.5t117 133.5t175.5 47q103 0 178.5 -44t115 -125t39.5 -189zM679 364q0 91 -33 161t-96.5 108t-148.5 38q-83 0 -145.5 -40.5t-97.5 -117t-35 -169.5
q0 -91 33 -160t96 -107.5t149 -38.5q81 0 144 38.5t98.5 115t35.5 172.5zM465 835q18 0 35 9.5t41 36.5l22 -35q-18 -25 -44.5 -40t-50.5 -15q-18 0 -35 6.5t-33 14.5t-32.5 14.5t-32.5 6.5q-36 0 -70 -47l-27 35q20 27 46 42t52 15q17 0 35 -7t34.5 -15t32 -14.5t27.5 -6.5
z" />
    <glyph glyph-name="Odieresis" unicode="&#xd6;" horiz-adv-x="801" 
d="M734 362q0 -109 -41.5 -195t-117 -131.5t-174.5 -45.5q-103 0 -178.5 43.5t-115.5 123.5t-40 187q0 109 41.5 195.5t117 133.5t175.5 47q103 0 178.5 -44t115 -125t39.5 -189zM679 364q0 91 -33 161t-96.5 108t-148.5 38q-83 0 -145.5 -40.5t-97.5 -117t-35 -169.5
q0 -91 33 -160t96 -107.5t149 -38.5q81 0 144 38.5t98.5 115t35.5 172.5zM272 827q0 21 11.5 30.5t26.5 9.5q16 0 27 -9.5t11 -30.5q0 -20 -11 -30.5t-27 -10.5q-15 0 -26.5 10.5t-11.5 30.5zM453 827q0 21 10.5 30.5t27.5 9.5q15 0 26.5 -9.5t11.5 -30.5q0 -20 -11.5 -30.5
t-26.5 -10.5q-17 0 -27.5 10.5t-10.5 30.5z" />
    <glyph glyph-name="multiply" unicode="&#xd7;" 
d="M242 343l-199 200l32 32l199 -200l199 200l32 -32l-200 -200l200 -200l-31 -31l-200 200l-200 -200l-31 31z" />
    <glyph glyph-name="Oslash" unicode="&#xd8;" horiz-adv-x="801" 
d="M734 362q0 -109 -41.5 -195t-117 -131.5t-174.5 -45.5q-131 0 -215 68l-70 -84h-58l95 115q-86 96 -86 255q0 109 41.5 195.5t116.5 133.5t176 47q129 0 217 -71l72 87h60l-99 -119q83 -96 83 -255zM123 344q0 -130 66 -213l395 477q-72 63 -183 63q-83 0 -145.5 -40.5
t-97.5 -117t-35 -169.5zM679 364q0 126 -64 210l-395 -475q71 -61 181 -61q81 0 143.5 38.5t98.5 115t36 172.5z" />
    <glyph glyph-name="Ugrave" unicode="&#xd9;" horiz-adv-x="680" 
d="M593 219q0 -104 -68.5 -166.5t-185.5 -62.5q-116 0 -184.5 62t-68.5 168v490h52v-477q0 -91 54 -144t147 -53q94 0 147.5 51.5t53.5 141.5v481h53v-491zM358 766l-154 105l45 36l135 -122z" />
    <glyph glyph-name="Uacute" unicode="&#xda;" horiz-adv-x="680" 
d="M593 219q0 -104 -68.5 -166.5t-185.5 -62.5q-116 0 -184.5 62t-68.5 168v490h52v-477q0 -91 54 -144t147 -53q94 0 147.5 51.5t53.5 141.5v481h53v-491zM309 785l135 122l45 -36l-154 -105z" />
    <glyph glyph-name="Ucircumflex" unicode="&#xdb;" horiz-adv-x="680" 
d="M593 219q0 -104 -68.5 -166.5t-185.5 -62.5q-116 0 -184.5 62t-68.5 168v490h52v-477q0 -91 54 -144t147 -53q94 0 147.5 51.5t53.5 141.5v481h53v-491zM447 766l-107 83l-106 -83l-28 13l118 120h33l118 -120z" />
    <glyph glyph-name="Udieresis" unicode="&#xdc;" horiz-adv-x="680" 
d="M593 219q0 -104 -68.5 -166.5t-185.5 -62.5q-116 0 -184.5 62t-68.5 168v490h52v-477q0 -91 54 -144t147 -53q94 0 147.5 51.5t53.5 141.5v481h53v-491zM212 827q0 21 11.5 30.5t26.5 9.5q16 0 27 -9.5t11 -30.5q0 -20 -11 -30.5t-27 -10.5q-15 0 -26.5 10.5t-11.5 30.5z
M393 827q0 21 10.5 30.5t27.5 9.5q15 0 26.5 -9.5t11.5 -30.5q0 -20 -11.5 -30.5t-26.5 -10.5q-17 0 -27.5 10.5t-10.5 30.5z" />
    <glyph glyph-name="Yacute" unicode="&#xdd;" horiz-adv-x="553" 
d="M13 710h61l202 -327l202 327h62l-238 -372v-338h-52v339zM248 785l135 122l45 -36l-154 -105z" />
    <glyph glyph-name="Thorn" unicode="&#xde;" horiz-adv-x="583" 
d="M526 371q0 -59 -27.5 -107.5t-76 -75t-107.5 -26.5h-158v-162h-53v710h53v-151h158q103 0 157 -49.5t54 -138.5zM472 371q0 66 -40 103t-115 37h-160v-303h153q74 0 118 44.5t44 118.5z" />
    <glyph glyph-name="germandbls" unicode="&#xdf;" horiz-adv-x="579" 
d="M260 405q0 22 7 38.5t18.5 30.5t48.5 43q31 24 42 37t17.5 28.5t6.5 35.5q0 48 -32 76t-88 28q-65 0 -102 -40t-37 -113v-569h-51v578q0 88 50.5 139t140.5 51q77 0 123 -40t46 -106q0 -25 -8 -46t-22 -38.5t-69 -60.5q-22 -18 -32 -34.5t-10 -36.5q0 -25 7.5 -39
t27 -28.5t68.5 -41.5q72 -40 97.5 -75t25.5 -86q0 -66 -47 -106t-126 -40q-80 0 -149 21l11 47q72 -24 141 -24q56 0 88.5 25.5t32.5 70.5q0 34 -9.5 52t-32 36.5t-59.5 38.5q-56 29 -79.5 49t-34.5 43.5t-11 55.5z" />
    <glyph glyph-name="agrave" unicode="&#xe0;" horiz-adv-x="528" 
d="M402 0l-7 48q-89 -58 -185 -58q-79 0 -122.5 39t-43.5 107q0 93 81 135t268 47v62q0 60 -36 95.5t-98 35.5q-71 0 -147 -30l-15 45q74 31 166 31q83 0 131.5 -46.5t48.5 -125.5v-385h-41zM393 274q-107 -3 -171 -17.5t-94.5 -43.5t-30.5 -78q0 -45 32 -72t84 -27
q93 0 180 55v183zM293 606l-143 122l39 38l132 -139z" />
    <glyph glyph-name="aacute" unicode="&#xe1;" horiz-adv-x="528" 
d="M402 0l-7 48q-89 -58 -185 -58q-79 0 -122.5 39t-43.5 107q0 93 81 135t268 47v62q0 60 -36 95.5t-98 35.5q-71 0 -147 -30l-15 45q74 31 166 31q83 0 131.5 -46.5t48.5 -125.5v-385h-41zM393 274q-107 -3 -171 -17.5t-94.5 -43.5t-30.5 -78q0 -45 32 -72t84 -27
q93 0 180 55v183zM218 627l132 139l39 -38l-143 -122z" />
    <glyph glyph-name="acircumflex" unicode="&#xe2;" horiz-adv-x="528" 
d="M402 0l-7 48q-89 -58 -185 -58q-79 0 -122.5 39t-43.5 107q0 93 81 135t268 47v62q0 60 -36 95.5t-98 35.5q-71 0 -147 -30l-15 45q74 31 166 31q83 0 131.5 -46.5t48.5 -125.5v-385h-41zM393 274q-107 -3 -171 -17.5t-94.5 -43.5t-30.5 -78q0 -45 32 -72t84 -27
q93 0 180 55v183zM371 609l-107 109l-106 -109l-28 20l114 134h41l114 -134z" />
    <glyph glyph-name="atilde" unicode="&#xe3;" horiz-adv-x="528" 
d="M402 0l-7 48q-89 -58 -185 -58q-79 0 -122.5 39t-43.5 107q0 93 81 135t268 47v62q0 60 -36 95.5t-98 35.5q-71 0 -147 -30l-15 45q74 31 166 31q83 0 131.5 -46.5t48.5 -125.5v-385h-41zM393 274q-107 -3 -171 -17.5t-94.5 -43.5t-30.5 -78q0 -45 32 -72t84 -27
q93 0 180 55v183zM329 663q18 0 35.5 9.5t40.5 36.5l22 -35q-17 -24 -44 -39.5t-51 -15.5q-18 0 -35 6.5t-33 14.5t-32.5 14.5t-32.5 6.5q-17 0 -34 -10.5t-36 -36.5l-27 35q19 26 45.5 41.5t52.5 15.5q17 0 35 -7t34.5 -15t32 -14.5t27.5 -6.5z" />
    <glyph glyph-name="adieresis" unicode="&#xe4;" horiz-adv-x="528" 
d="M402 0l-7 48q-89 -58 -185 -58q-79 0 -122.5 39t-43.5 107q0 93 81 135t268 47v62q0 60 -36 95.5t-98 35.5q-71 0 -147 -30l-15 45q74 31 166 31q83 0 131.5 -46.5t48.5 -125.5v-385h-41zM393 274q-107 -3 -171 -17.5t-94.5 -43.5t-30.5 -78q0 -45 32 -72t84 -27
q93 0 180 55v183zM138 670q0 21 11.5 30.5t26.5 9.5q16 0 27 -9.5t11 -30.5q0 -20 -11 -30.5t-27 -10.5q-15 0 -26.5 10.5t-11.5 30.5zM319 670q0 39 38 40q15 0 26.5 -9.5t11.5 -30.5q0 -20 -11 -30.5t-27 -10.5q-17 0 -27.5 10.5t-10.5 30.5z" />
    <glyph glyph-name="aring" unicode="&#xe5;" horiz-adv-x="528" 
d="M402 0l-7 48q-89 -58 -185 -58q-79 0 -122.5 39t-43.5 107q0 93 81 135t268 47v62q0 60 -36 95.5t-98 35.5q-71 0 -147 -30l-15 45q74 31 166 31q83 0 131.5 -46.5t48.5 -125.5v-385h-41zM393 274q-107 -3 -171 -17.5t-94.5 -43.5t-30.5 -78q0 -45 32 -72t84 -27
q93 0 180 55v183zM172 707q0 42 28.5 70.5t69.5 28.5t70 -29t29 -70t-28.5 -69.5t-70.5 -28.5t-70 28t-28 70zM212 707q0 -25 16.5 -41.5t41.5 -16.5t41.5 16.5t16.5 41.5q0 24 -17 41.5t-41 17.5q-23 0 -40.5 -17t-17.5 -42z" />
    <glyph glyph-name="ae" unicode="&#xe6;" horiz-adv-x="869" 
d="M808 271h-365q0 -114 48.5 -174.5t144.5 -60.5q76 0 164 39l12 -47q-39 -17 -87 -27.5t-94 -10.5q-129 0 -189 85q-48 -42 -109 -63.5t-123 -21.5q-79 0 -122.5 39t-43.5 107q0 93 81 135t268 47v62q0 60 -36 95.5t-98 35.5q-71 0 -147 -30l-15 45q74 31 166 31
q64 0 107.5 -27.5t59.5 -80.5q26 52 69.5 80t104.5 28q100 0 152 -62t52 -182v-42zM213 36q59 0 112.5 20t96.5 54q-29 59 -29 164q-108 -3 -172.5 -18t-94 -44t-29.5 -77q0 -45 32 -72t84 -27zM754 317q0 96 -37.5 145t-111.5 49q-71 0 -113.5 -49t-47.5 -145h310z" />
    <glyph glyph-name="ccedilla" unicode="&#xe7;" horiz-adv-x="474" 
d="M409 488q-26 8 -56.5 15.5t-67.5 7.5q-78 0 -124.5 -63t-46.5 -174q0 -238 185 -238q29 0 65.5 7.5t67.5 19.5l11 -45q-24 -11 -66 -19.5t-80 -8.5q-116 0 -176 73t-60 211q0 130 60.5 206.5t162.5 76.5q68 0 138 -21zM341 -134q0 -79 -87 -79q-16 0 -36.5 4t-27.5 8
l9 37q29 -10 56 -10q42 0 42 39q0 24 -18.5 36.5t-75.5 22.5l48 76h47l-34 -53q37 -9 57 -30t20 -51z" />
    <glyph glyph-name="egrave" unicode="&#xe8;" horiz-adv-x="540" 
d="M479 271h-365q0 -114 48.5 -174.5t144.5 -60.5q73 0 164 39l12 -47q-39 -17 -87 -27.5t-94 -10.5q-118 0 -179.5 71t-61.5 205q0 140 55.5 215.5t158.5 75.5q99 0 151.5 -62t52.5 -182v-42zM425 317q0 96 -37.5 145t-111.5 49q-71 0 -112 -48.5t-49 -145.5h310zM297 606
l-143 122l39 38l132 -139z" />
    <glyph glyph-name="eacute" unicode="&#xe9;" horiz-adv-x="540" 
d="M479 271h-365q0 -114 48.5 -174.5t144.5 -60.5q73 0 164 39l12 -47q-39 -17 -87 -27.5t-94 -10.5q-118 0 -179.5 71t-61.5 205q0 140 55.5 215.5t158.5 75.5q99 0 151.5 -62t52.5 -182v-42zM425 317q0 96 -37.5 145t-111.5 49q-71 0 -112 -48.5t-49 -145.5h310zM236 627
l132 139l39 -38l-143 -122z" />
    <glyph glyph-name="ecircumflex" unicode="&#xea;" horiz-adv-x="540" 
d="M479 271h-365q0 -114 48.5 -174.5t144.5 -60.5q73 0 164 39l12 -47q-39 -17 -87 -27.5t-94 -10.5q-118 0 -179.5 71t-61.5 205q0 140 55.5 215.5t158.5 75.5q99 0 151.5 -62t52.5 -182v-42zM425 317q0 96 -37.5 145t-111.5 49q-71 0 -112 -48.5t-49 -145.5h310zM387 609
l-107 109l-106 -109l-28 20l114 134h41l114 -134z" />
    <glyph glyph-name="edieresis" unicode="&#xeb;" horiz-adv-x="540" 
d="M479 271h-365q0 -114 48.5 -174.5t144.5 -60.5q73 0 164 39l12 -47q-39 -17 -87 -27.5t-94 -10.5q-118 0 -179.5 71t-61.5 205q0 140 55.5 215.5t158.5 75.5q99 0 151.5 -62t52.5 -182v-42zM425 317q0 96 -37.5 145t-111.5 49q-71 0 -112 -48.5t-49 -145.5h310zM153 670
q0 21 11.5 30.5t26.5 9.5q16 0 27 -9.5t11 -30.5q0 -20 -11 -30.5t-27 -10.5q-15 0 -26.5 10.5t-11.5 30.5zM334 670q0 39 38 40q15 0 26.5 -9.5t11.5 -30.5q0 -20 -11 -30.5t-27 -10.5q-17 0 -27.5 10.5t-10.5 30.5z" />
    <glyph glyph-name="igrave" unicode="&#xec;" horiz-adv-x="230" 
d="M90 0v547h50v-547h-50zM122 606l-143 122l39 38l132 -139z" />
    <glyph glyph-name="iacute" unicode="&#xed;" horiz-adv-x="230" 
d="M90 0v547h50v-547h-50zM82 627l132 139l39 -38l-143 -122z" />
    <glyph glyph-name="icircumflex" unicode="&#xee;" horiz-adv-x="230" 
d="M90 0v547h50v-547h-50zM223 609l-107 109l-106 -109l-28 20l114 134h41l114 -134z" />
    <glyph glyph-name="idieresis" unicode="&#xef;" horiz-adv-x="230" 
d="M90 0v547h50v-547h-50zM-12 670q0 21 11.5 30.5t26.5 9.5q16 0 27 -9.5t11 -30.5q0 -20 -11 -30.5t-27 -10.5q-15 0 -26.5 10.5t-11.5 30.5zM169 670q0 39 38 40q15 0 26.5 -9.5t11.5 -30.5q0 -20 -11 -30.5t-27 -10.5q-17 0 -27.5 10.5t-10.5 30.5z" />
    <glyph glyph-name="eth" unicode="&#xf0;" horiz-adv-x="590" 
d="M190 622l104 65q-66 35 -158 35h-13l5 46h12q117 0 200 -54l103 68l25 -35l-95 -60q80 -71 116.5 -167.5t36.5 -228.5q0 -144 -62 -222.5t-177 -78.5q-107 0 -166.5 72t-59.5 201q0 126 63.5 200t170.5 74q99 0 154 -59q-13 49 -44.5 97.5t-75.5 83.5l-115 -72zM289 36
q88 0 136 65t48 184q0 103 -45.5 154.5t-132.5 51.5q-83 0 -132 -61.5t-49 -166.5q0 -109 44 -168t131 -59z" />
    <glyph glyph-name="ntilde" unicode="&#xf1;" horiz-adv-x="578" 
d="M493 0h-50v377q0 63 -31.5 98.5t-90.5 35.5q-51 0 -92.5 -13t-88.5 -44v-454h-50v547h40l10 -46q46 31 86.5 43.5t100.5 12.5q77 0 121.5 -47t44.5 -128v-382zM354 663q18 0 35.5 9.5t40.5 36.5l22 -35q-17 -24 -44 -39.5t-51 -15.5q-18 0 -35 6.5t-33 14.5t-32.5 14.5
t-32.5 6.5q-17 0 -34 -10.5t-36 -36.5l-27 35q19 26 45.5 41.5t52.5 15.5q17 0 35 -7t34.5 -15t32 -14.5t27.5 -6.5z" />
    <glyph glyph-name="ograve" unicode="&#xf2;" horiz-adv-x="600" 
d="M300 36q89 0 137.5 63t48.5 174q0 112 -48.5 175t-137.5 63q-87 0 -136.5 -62t-49.5 -176q0 -113 49.5 -175t136.5 -62zM300 -10q-114 0 -176.5 74.5t-62.5 208.5t62.5 209t176.5 75t176.5 -75t62.5 -209t-62 -208.5t-177 -74.5zM308 606l-143 122l39 38l132 -139z" />
    <glyph glyph-name="oacute" unicode="&#xf3;" horiz-adv-x="600" 
d="M300 36q89 0 137.5 63t48.5 174q0 112 -48.5 175t-137.5 63q-87 0 -136.5 -62t-49.5 -176q0 -113 49.5 -175t136.5 -62zM300 -10q-114 0 -176.5 74.5t-62.5 208.5t62.5 209t176.5 75t176.5 -75t62.5 -209t-62 -208.5t-177 -74.5zM267 627l132 139l39 -38l-143 -122z" />
    <glyph glyph-name="ocircumflex" unicode="&#xf4;" horiz-adv-x="600" 
d="M300 36q89 0 137.5 63t48.5 174q0 112 -48.5 175t-137.5 63q-87 0 -136.5 -62t-49.5 -176q0 -113 49.5 -175t136.5 -62zM300 -10q-114 0 -176.5 74.5t-62.5 208.5t62.5 209t176.5 75t176.5 -75t62.5 -209t-62 -208.5t-177 -74.5zM407 609l-107 109l-106 -109l-28 20
l114 134h41l114 -134z" />
    <glyph glyph-name="otilde" unicode="&#xf5;" horiz-adv-x="600" 
d="M300 36q89 0 137.5 63t48.5 174q0 112 -48.5 175t-137.5 63q-87 0 -136.5 -62t-49.5 -176q0 -113 49.5 -175t136.5 -62zM300 -10q-114 0 -176.5 74.5t-62.5 208.5t62.5 209t176.5 75t176.5 -75t62.5 -209t-62 -208.5t-177 -74.5zM365 663q18 0 35.5 9.5t40.5 36.5l22 -35
q-17 -24 -44 -39.5t-51 -15.5q-18 0 -35 6.5t-33 14.5t-32.5 14.5t-32.5 6.5q-17 0 -34 -10.5t-36 -36.5l-27 35q19 26 45.5 41.5t52.5 15.5q17 0 35 -7t34.5 -15t32 -14.5t27.5 -6.5z" />
    <glyph glyph-name="odieresis" unicode="&#xf6;" horiz-adv-x="600" 
d="M300 36q89 0 137.5 63t48.5 174q0 112 -48.5 175t-137.5 63q-87 0 -136.5 -62t-49.5 -176q0 -113 49.5 -175t136.5 -62zM300 -10q-114 0 -176.5 74.5t-62.5 208.5t62.5 209t176.5 75t176.5 -75t62.5 -209t-62 -208.5t-177 -74.5zM172 670q0 21 11.5 30.5t26.5 9.5
q16 0 27 -9.5t11 -30.5q0 -20 -11 -30.5t-27 -10.5q-15 0 -26.5 10.5t-11.5 30.5zM353 670q0 39 38 40q15 0 26.5 -9.5t11.5 -30.5q0 -20 -11 -30.5t-27 -10.5q-17 0 -27.5 10.5t-10.5 30.5z" />
    <glyph glyph-name="divide" unicode="&#xf7;" 
d="M233 187q0 19 11.5 31.5t28.5 12.5t29 -13t12 -31t-12 -30t-29 -12t-28.5 12t-11.5 30zM36 321v45h476v-45h-476zM233 498q0 19 11.5 31.5t28.5 12.5t29 -13t12 -31t-12 -30t-29 -12t-28.5 12t-11.5 30z" />
    <glyph glyph-name="oslash" unicode="&#xf8;" horiz-adv-x="600" 
d="M539 273q0 -134 -62 -208.5t-177 -74.5q-99 0 -160 56l-62 -73h-53l88 104q-52 72 -52 196q0 134 62.5 209t176.5 75q103 0 166 -64l67 78h54l-95 -111q47 -73 47 -187zM486 273q0 83 -30 144l-282 -331q47 -50 126 -50q89 0 137.5 63t48.5 174zM433 453q-49 58 -133 58
q-87 0 -136.5 -62t-49.5 -176q0 -94 35 -154z" />
    <glyph glyph-name="ugrave" unicode="&#xf9;" horiz-adv-x="578" 
d="M85 547h50v-377q0 -65 32.5 -99.5t92.5 -34.5q51 0 92 13.5t86 43.5v454h50v-547h-40l-10 46q-48 -32 -88.5 -44t-94.5 -12q-80 0 -125 46.5t-45 128.5v382zM300 606l-143 122l39 38l132 -139z" />
    <glyph glyph-name="uacute" unicode="&#xfa;" horiz-adv-x="578" 
d="M85 547h50v-377q0 -65 32.5 -99.5t92.5 -34.5q51 0 92 13.5t86 43.5v454h50v-547h-40l-10 46q-48 -32 -88.5 -44t-94.5 -12q-80 0 -125 46.5t-45 128.5v382zM246 627l132 139l39 -38l-143 -122z" />
    <glyph glyph-name="ucircumflex" unicode="&#xfb;" horiz-adv-x="578" 
d="M85 547h50v-377q0 -65 32.5 -99.5t92.5 -34.5q51 0 92 13.5t86 43.5v454h50v-547h-40l-10 46q-48 -32 -88.5 -44t-94.5 -12q-80 0 -125 46.5t-45 128.5v382zM395 609l-107 109l-106 -109l-28 20l114 134h41l114 -134z" />
    <glyph glyph-name="udieresis" unicode="&#xfc;" horiz-adv-x="578" 
d="M85 547h50v-377q0 -65 32.5 -99.5t92.5 -34.5q51 0 92 13.5t86 43.5v454h50v-547h-40l-10 46q-48 -32 -88.5 -44t-94.5 -12q-80 0 -125 46.5t-45 128.5v382zM159 670q0 21 11.5 30.5t26.5 9.5q16 0 27 -9.5t11 -30.5q0 -20 -11 -30.5t-27 -10.5q-15 0 -26.5 10.5
t-11.5 30.5zM340 670q0 39 38 40q15 0 26.5 -9.5t11.5 -30.5q0 -20 -11 -30.5t-27 -10.5q-17 0 -27.5 10.5t-10.5 30.5z" />
    <glyph glyph-name="yacute" unicode="&#xfd;" horiz-adv-x="445" 
d="M53 -232q-35 0 -53 4l8 50q18 -5 48 -5q44 0 77 36t63 116l11 30l-196 548h53l168 -477l160 477h53l-200 -585q-36 -105 -81.5 -149.5t-110.5 -44.5zM199 627l132 139l39 -38l-143 -122z" />
    <glyph glyph-name="thorn" unicode="&#xfe;" horiz-adv-x="587" 
d="M526 280q0 -134 -65 -211t-174 -77q-83 0 -147 18v-231h-50v989h50v-268q79 57 165 57q113 0 167 -69t54 -208zM473 280q0 116 -41 173.5t-132 57.5q-40 0 -83.5 -16t-76.5 -42v-393q37 -12 69.5 -17t78.5 -5q54 0 96 29.5t65.5 83.5t23.5 129z" />
    <glyph glyph-name="ydieresis" unicode="&#xff;" horiz-adv-x="445" 
d="M53 -232q-35 0 -53 4l8 50q18 -5 48 -5q44 0 77 36t63 116l11 30l-196 548h53l168 -477l160 477h53l-200 -585q-36 -105 -81.5 -149.5t-110.5 -44.5zM103 670q0 21 11.5 30.5t26.5 9.5q16 0 27 -9.5t11 -30.5q0 -20 -11 -30.5t-27 -10.5q-15 0 -26.5 10.5t-11.5 30.5z
M284 670q0 39 38 40q15 0 26.5 -9.5t11.5 -30.5q0 -20 -11 -30.5t-27 -10.5q-17 0 -27.5 10.5t-10.5 30.5z" />
    <glyph glyph-name="Abreve" unicode="&#x102;" horiz-adv-x="610" 
d="M448 272h-290l-104 -272h-54l277 710h56l277 -710h-54zM430 320l-82 221q-9 24 -24.5 69t-17.5 51l-33 -93l-94 -248h251zM305 805q69 0 91 88h41q-18 -68 -50.5 -97.5t-81.5 -29.5q-50 0 -82.5 30.5t-49.5 96.5h41q22 -88 91 -88z" />
    <glyph glyph-name="abreve" unicode="&#x103;" horiz-adv-x="528" 
d="M402 0l-7 48q-89 -58 -185 -58q-79 0 -122.5 39t-43.5 107q0 93 81 135t268 47v62q0 60 -36 95.5t-98 35.5q-71 0 -147 -30l-15 45q74 31 166 31q83 0 131.5 -46.5t48.5 -125.5v-385h-41zM393 274q-107 -3 -171 -17.5t-94.5 -43.5t-30.5 -78q0 -45 32 -72t84 -27
q93 0 180 55v183zM262 658q35 0 57.5 23.5t33.5 74.5h41q-17 -73 -49 -105t-83 -32t-83.5 32.5t-48.5 104.5h41q11 -51 33.5 -74.5t57.5 -23.5z" />
    <glyph glyph-name="Aogonek" unicode="&#x104;" horiz-adv-x="610" 
d="M448 272h-290l-104 -272h-54l277 710h56l277 -710h-54zM430 320l-82 221q-9 24 -24.5 69t-17.5 51l-33 -93l-94 -248h251zM614 -184q-38 -15 -75 -15t-57.5 19t-20.5 52q0 24 10 43t26 35.5t34.5 31t36.5 28.5h38v-10q-54 -44 -75.5 -70.5t-21.5 -49.5q0 -38 39 -38
q27 0 56 12z" />
    <glyph glyph-name="aogonek" unicode="&#x105;" horiz-adv-x="528" 
d="M402 0l-7 48q-89 -58 -185 -58q-79 0 -122.5 39t-43.5 107q0 93 81 135t268 47v62q0 60 -36 95.5t-98 35.5q-71 0 -147 -30l-15 45q74 31 166 31q83 0 131.5 -46.5t48.5 -125.5v-385h-41zM393 274q-107 -3 -171 -17.5t-94.5 -43.5t-30.5 -78q0 -45 32 -72t84 -27
q93 0 180 55v183zM451 -184q-38 -15 -75 -15t-57.5 19t-20.5 52q0 24 10 43t26 35.5t34.5 31t36.5 28.5h38v-10q-54 -44 -75.5 -70.5t-21.5 -49.5q0 -38 39 -38q27 0 56 12z" />
    <glyph glyph-name="Cacute" unicode="&#x106;" horiz-adv-x="617" 
d="M410 38q71 0 156 30l13 -48q-76 -30 -171 -30q-163 0 -252 92.5t-89 261.5q0 113 40.5 199.5t113 131.5t170.5 45q92 0 170 -29l-17 -50q-86 30 -153 30q-82 0 -142 -40t-93 -117t-33 -174q0 -92 33.5 -160t97.5 -105t156 -37zM320 785l135 122l45 -36l-154 -105z" />
    <glyph glyph-name="cacute" unicode="&#x107;" horiz-adv-x="474" 
d="M409 488q-26 8 -56.5 15.5t-67.5 7.5q-78 0 -124.5 -63t-46.5 -174q0 -238 185 -238q29 0 65.5 7.5t67.5 19.5l11 -45q-24 -11 -66 -19.5t-80 -8.5q-116 0 -176 73t-60 211q0 130 60.5 206.5t162.5 76.5q68 0 138 -21zM226 627l132 139l39 -38l-143 -122z" />
    <glyph glyph-name="Ccaron" unicode="&#x10c;" horiz-adv-x="617" 
d="M410 38q71 0 156 30l13 -48q-76 -30 -171 -30q-163 0 -252 92.5t-89 261.5q0 113 40.5 199.5t113 131.5t170.5 45q92 0 170 -29l-17 -50q-86 30 -153 30q-82 0 -142 -40t-93 -117t-33 -174q0 -92 33.5 -160t97.5 -105t156 -37zM513 886l-118 -120h-33l-118 120l28 13
l106 -83l107 83z" />
    <glyph glyph-name="ccaron" unicode="&#x10d;" horiz-adv-x="474" 
d="M409 488q-26 8 -56.5 15.5t-67.5 7.5q-78 0 -124.5 -63t-46.5 -174q0 -238 185 -238q29 0 65.5 7.5t67.5 19.5l11 -45q-24 -11 -66 -19.5t-80 -8.5q-116 0 -176 73t-60 211q0 130 60.5 206.5t162.5 76.5q68 0 138 -21zM422 743l-114 -134h-41l-114 134l28 20l106 -109
l107 109z" />
    <glyph glyph-name="Dcaron" unicode="&#x10e;" horiz-adv-x="729" 
d="M662 380q0 -118 -42.5 -203.5t-122 -131t-184.5 -45.5h-209v710h208q172 0 261 -82t89 -248zM606 377q0 143 -70.5 214t-214.5 71h-164v-614h142q148 0 227.5 84t79.5 245zM466 886l-118 -120h-33l-118 120l28 13l106 -83l107 83z" />
    <glyph glyph-name="dcaron" unicode="&#x10f;" horiz-adv-x="587" 
d="M61 266q0 134 64.5 212.5t174.5 78.5q40 0 69.5 -8t77.5 -35v254h50v-768h-40l-8 48q-43 -31 -82.5 -44.5t-81.5 -13.5q-114 0 -169 69t-55 207zM114 266q0 -116 41.5 -173t131.5 -57q41 0 83.5 16t76.5 44v366q-52 32 -81.5 40.5t-66.5 8.5q-54 0 -96 -30t-65.5 -85
t-23.5 -130zM642 720q0 -38 -19 -71t-52 -55l-23 25q21 14 36 36.5t18 48.5q-20 0 -30.5 9.5t-10.5 24.5t9.5 26t28.5 11q20 0 31.5 -13.5t11.5 -41.5z" />
    <glyph glyph-name="Dcroat" unicode="&#x110;" horiz-adv-x="729" 
d="M662 380q0 -118 -42.5 -203.5t-122 -131t-184.5 -45.5h-209v341h-101v48h101v321h208q172 0 261 -82t89 -248zM606 377q0 143 -70.5 214t-214.5 71h-164v-273h204v-48h-204v-293h142q148 0 227.5 84t79.5 245z" />
    <glyph glyph-name="dcroat" unicode="&#x111;" horiz-adv-x="587" 
d="M61 266q0 134 64.5 212.5t174.5 78.5q40 0 69.5 -8t77.5 -35v115h-202v46h202v93h50v-93h83v-46h-83v-629h-40l-8 48q-43 -31 -82.5 -44.5t-81.5 -13.5q-114 0 -169 69t-55 207zM114 266q0 -116 41.5 -173t131.5 -57q41 0 83.5 16t76.5 44v366q-52 32 -81.5 40.5
t-66.5 8.5q-54 0 -96 -30t-65.5 -85t-23.5 -130z" />
    <glyph glyph-name="Eogonek" unicode="&#x118;" horiz-adv-x="525" 
d="M104 0v710h380v-48h-327v-264h302v-48h-302v-302h327v-48h-380zM464 -184q-38 -15 -75 -15t-57.5 19t-20.5 52q0 24 10 43t26 35.5t34.5 31t36.5 28.5h38v-10q-54 -44 -75.5 -70.5t-21.5 -49.5q0 -38 39 -38q27 0 56 12z" />
    <glyph glyph-name="eogonek" unicode="&#x119;" horiz-adv-x="540" 
d="M479 271h-365q0 -114 48.5 -174.5t144.5 -60.5q73 0 164 39l12 -47q-39 -17 -87 -27.5t-94 -10.5q-118 0 -179.5 71t-61.5 205q0 140 55.5 215.5t158.5 75.5q99 0 151.5 -62t52.5 -182v-42zM425 317q0 96 -37.5 145t-111.5 49q-71 0 -112 -48.5t-49 -145.5h310zM427 -184
q-38 -15 -75 -15t-57.5 19t-20.5 52q0 24 10 43t26 35.5t34.5 31t36.5 28.5h38v-10q-54 -44 -75.5 -70.5t-21.5 -49.5q0 -38 39 -38q27 0 56 12z" />
    <glyph glyph-name="Ecaron" unicode="&#x11a;" horiz-adv-x="525" 
d="M104 0v710h380v-48h-327v-264h302v-48h-302v-302h327v-48h-380zM437 886l-118 -120h-33l-118 120l28 13l106 -83l107 83z" />
    <glyph glyph-name="ecaron" unicode="&#x11b;" horiz-adv-x="540" 
d="M479 271h-365q0 -114 48.5 -174.5t144.5 -60.5q73 0 164 39l12 -47q-39 -17 -87 -27.5t-94 -10.5q-118 0 -179.5 71t-61.5 205q0 140 55.5 215.5t158.5 75.5q99 0 151.5 -62t52.5 -182v-42zM425 317q0 96 -37.5 145t-111.5 49q-71 0 -112 -48.5t-49 -145.5h310zM419 743
l-114 -134h-41l-114 134l28 20l106 -109l107 109z" />
    <glyph glyph-name="Gbreve" unicode="&#x11e;" horiz-adv-x="702" 
d="M622 28q-35 -15 -91 -26.5t-110 -11.5q-110 0 -190 44t-122 124.5t-42 187.5q0 113 42 199t117.5 130.5t176.5 44.5q48 0 100.5 -8.5t86.5 -20.5l-18 -50q-82 30 -170 30q-85 0 -147.5 -39t-97 -116t-34.5 -174q0 -89 36 -158.5t104.5 -107.5t159.5 -38q69 0 147 23v252
h-158v48h210v-333zM389 805q69 0 91 88h41q-18 -68 -50.5 -97.5t-81.5 -29.5q-50 0 -82.5 30.5t-49.5 96.5h41q22 -88 91 -88z" />
    <glyph glyph-name="gbreve" unicode="&#x11f;" horiz-adv-x="587" 
d="M114 267q0 -118 41.5 -174.5t131.5 -56.5q83 0 160 57v398q-70 20 -148 20q-82 0 -133.5 -66.5t-51.5 -177.5zM447 44q-77 -54 -165 -54q-115 0 -168 69.5t-53 207.5q0 135 65 212.5t174 77.5q89 0 197 -30v-563q0 -91 -61 -143.5t-171 -52.5q-80 0 -170 26l15 46
q75 -28 154 -28q87 0 135 41t48 118v73zM301 658q35 0 57.5 23.5t33.5 74.5h41q-17 -73 -49 -105t-83 -32t-83.5 32.5t-48.5 104.5h41q11 -51 33.5 -74.5t57.5 -23.5z" />
    <glyph glyph-name="Idotaccent" unicode="&#x130;" horiz-adv-x="261" 
d="M104 0v710h53v-710h-53zM90 826q0 23 12 33.5t30 10.5q17 0 29 -11t12 -33t-12 -33.5t-29 -11.5q-19 0 -30.5 11.5t-11.5 33.5z" />
    <glyph glyph-name="dotlessi" unicode="&#x131;" horiz-adv-x="230" 
d="M90 0v547h50v-547h-50z" />
    <glyph glyph-name="Lacute" unicode="&#x139;" horiz-adv-x="504" 
d="M157 48h327v-48h-380v710h53v-662zM106 785l135 122l45 -36l-154 -105z" />
    <glyph glyph-name="lacute" unicode="&#x13a;" horiz-adv-x="230" 
d="M90 0v768h50v-768h-50zM87 813l135 122l45 -36l-154 -105z" />
    <glyph glyph-name="Lcaron" unicode="&#x13d;" horiz-adv-x="504" 
d="M157 48h327v-48h-380v710h53v-662zM411 655q0 -38 -19 -71t-52 -55l-23 25q21 14 36 36.5t18 48.5q-20 0 -30.5 9.5t-10.5 24.5t9.5 26t28.5 11q20 0 31.5 -13.5t11.5 -41.5z" />
    <glyph glyph-name="lcaron" unicode="&#x13e;" horiz-adv-x="230" 
d="M90 0v768h50v-768h-50zM296 720q0 -38 -19 -71t-52 -55l-23 25q21 14 36 36.5t18 48.5q-20 0 -30.5 9.5t-10.5 24.5t9.5 26t28.5 11q20 0 31.5 -13.5t11.5 -41.5z" />
    <glyph glyph-name="Lslash" unicode="&#x141;" horiz-adv-x="504" 
d="M280 393l-123 -81v-264h327v-48h-380v278l-104 -68v56l104 68v376h53v-342l123 81v-56z" />
    <glyph glyph-name="lslash" unicode="&#x142;" horiz-adv-x="230" 
d="M90 0v342l-90 -58v52l90 58v374h50v-341l90 59v-52l-90 -59v-375h-50z" />
    <glyph glyph-name="Nacute" unicode="&#x143;" horiz-adv-x="717" 
d="M613 0h-72l-342 573l-48 85q4 -72 4 -129v-529h-51v710h71l313 -524q31 -51 79 -137q-4 80 -4 115v546h50v-710zM324 785l135 122l45 -36l-154 -105z" />
    <glyph glyph-name="nacute" unicode="&#x144;" horiz-adv-x="578" 
d="M493 0h-50v377q0 63 -31.5 98.5t-90.5 35.5q-51 0 -92.5 -13t-88.5 -44v-454h-50v547h40l10 -46q46 31 86.5 43.5t100.5 12.5q77 0 121.5 -47t44.5 -128v-382zM238 627l132 139l39 -38l-143 -122z" />
    <glyph glyph-name="Ncaron" unicode="&#x147;" horiz-adv-x="717" 
d="M613 0h-72l-342 573l-48 85q4 -72 4 -129v-529h-51v710h71l313 -524q31 -51 79 -137q-4 80 -4 115v546h50v-710zM493 886l-118 -120h-33l-118 120l28 13l106 -83l107 83z" />
    <glyph glyph-name="ncaron" unicode="&#x148;" horiz-adv-x="578" 
d="M493 0h-50v377q0 63 -31.5 98.5t-90.5 35.5q-51 0 -92.5 -13t-88.5 -44v-454h-50v547h40l10 -46q46 31 86.5 43.5t100.5 12.5q77 0 121.5 -47t44.5 -128v-382zM436 743l-114 -134h-41l-114 134l28 20l106 -109l107 109z" />
    <glyph glyph-name="Ohungarumlaut" unicode="&#x150;" horiz-adv-x="801" 
d="M734 362q0 -109 -41.5 -195t-117 -131.5t-174.5 -45.5q-103 0 -178.5 43.5t-115.5 123.5t-40 187q0 109 41.5 195.5t117 133.5t175.5 47q103 0 178.5 -44t115 -125t39.5 -189zM679 364q0 91 -33 161t-96.5 108t-148.5 38q-83 0 -145.5 -40.5t-97.5 -117t-35 -169.5
q0 -91 33 -160t96 -107.5t149 -38.5q81 0 144 38.5t98.5 115t35.5 172.5zM462 766l-25 13l97 120l50 -28zM319 766l-25 13l97 120l50 -28z" />
    <glyph glyph-name="ohungarumlaut" unicode="&#x151;" horiz-adv-x="600" 
d="M300 36q89 0 137.5 63t48.5 174q0 112 -48.5 175t-137.5 63q-87 0 -136.5 -62t-49.5 -176q0 -113 49.5 -175t136.5 -62zM300 -10q-114 0 -176.5 74.5t-62.5 208.5t62.5 209t176.5 75t176.5 -75t62.5 -209t-62 -208.5t-177 -74.5zM328 627l97 139l45 -33l-117 -124z
M185 627l97 139l45 -33l-117 -124z" />
    <glyph glyph-name="OE" unicode="&#x152;" horiz-adv-x="908" 
d="M489 0q-46 -10 -88 -10q-103 0 -178.5 43.5t-115.5 123.5t-40 187q0 109 41.5 195.5t116.5 133.5t176 47q42 0 92 -10h374v-48h-327v-264h302v-48h-302v-302h327v-48h-378zM401 38q50 0 86 11v611q-39 11 -86 11q-83 0 -145.5 -40.5t-97.5 -117t-35 -169.5q0 -91 33 -160
t96 -107.5t149 -38.5z" />
    <glyph glyph-name="oe" unicode="&#x153;" horiz-adv-x="965" 
d="M904 271h-365v-12q3 -108 51.5 -165.5t141.5 -57.5q73 0 164 39l12 -47q-39 -17 -87 -27.5t-94 -10.5q-81 0 -135.5 33.5t-80.5 96.5q-29 -64 -82.5 -97t-128.5 -33q-114 0 -176.5 74.5t-62.5 208.5t62.5 209t176.5 75q75 0 129 -33.5t82 -98.5q51 132 189 132
q100 0 152 -62t52 -182v-42zM300 36q87 0 136.5 59.5t49.5 166.5v11q0 112 -48.5 175t-137.5 63q-87 0 -136.5 -62t-49.5 -176q0 -113 49.5 -175t136.5 -62zM850 317q0 96 -37.5 145t-111.5 49q-72 0 -113 -48.5t-48 -145.5h310z" />
    <glyph glyph-name="Racute" unicode="&#x154;" horiz-adv-x="599" 
d="M526 530q0 -74 -40 -127t-108 -73l221 -330h-63l-210 320q-31 -1 -58 -1h-111v-319h-53v710h220q102 0 152 -44.5t50 -135.5zM472 530q0 68 -35 100t-108 32h-172v-297h153q76 0 119 44t43 121zM230 785l135 122l45 -36l-154 -105z" />
    <glyph glyph-name="racute" unicode="&#x155;" horiz-adv-x="337" 
d="M90 547h40l7 -68q33 44 65.5 61t78.5 17q28 0 46 -4l-8 -50q-18 6 -48 6q-39 0 -69.5 -20.5t-61.5 -66.5v-422h-50v547zM150 627l132 139l39 -38l-143 -122z" />
    <glyph glyph-name="Rcaron" unicode="&#x158;" horiz-adv-x="599" 
d="M526 530q0 -74 -40 -127t-108 -73l221 -330h-63l-210 320q-31 -1 -58 -1h-111v-319h-53v710h220q102 0 152 -44.5t50 -135.5zM472 530q0 68 -35 100t-108 32h-172v-297h153q76 0 119 44t43 121zM430 886l-118 -120h-33l-118 120l28 13l106 -83l107 83z" />
    <glyph glyph-name="rcaron" unicode="&#x159;" horiz-adv-x="337" 
d="M90 547h40l7 -68q33 44 65.5 61t78.5 17q28 0 46 -4l-8 -50q-18 6 -48 6q-39 0 -69.5 -20.5t-61.5 -66.5v-422h-50v547zM335 743l-114 -134h-41l-114 134l28 20l106 -109l107 109z" />
    <glyph glyph-name="Sacute" unicode="&#x15a;" horiz-adv-x="522" 
d="M465 176q0 -83 -58 -134.5t-153 -51.5q-113 0 -204 31l17 52q54 -20 94.5 -27.5t91.5 -7.5q71 0 115 38.5t44 98.5q0 45 -16 72.5t-53 53.5t-103 53q-94 39 -135 88t-41 122q0 70 51.5 113t138.5 43q44 0 82.5 -6t87.5 -22l-15 -48q-85 30 -156 30q-66 0 -101.5 -31
t-35.5 -82q0 -42 16 -70t52.5 -52.5t98.5 -49.5q99 -41 140.5 -90t41.5 -123zM207 785l135 122l45 -36l-154 -105z" />
    <glyph glyph-name="sacute" unicode="&#x15b;" horiz-adv-x="420" 
d="M367 145q0 -69 -47.5 -112t-125.5 -43q-80 0 -149 21l11 48q28 -9 62 -17t79 -8q54 0 87.5 29.5t33.5 76.5q0 31 -12 50.5t-38 37.5t-69 34q-74 27 -109.5 64t-35.5 93q0 63 40.5 100.5t111.5 37.5q30 0 67.5 -5.5t62.5 -11.5l-11 -47q-27 7 -56.5 13t-63.5 6
q-48 0 -75.5 -24.5t-27.5 -65.5q0 -32 12 -51.5t39 -36t71 -31.5q143 -50 143 -158zM156 627l132 139l39 -38l-143 -122z" />
    <glyph glyph-name="Scedilla" unicode="&#x15e;" horiz-adv-x="522" 
d="M465 176q0 -83 -58 -134.5t-153 -51.5q-113 0 -204 31l17 52q54 -20 94.5 -27.5t91.5 -7.5q71 0 115 38.5t44 98.5q0 45 -16 72.5t-53 53.5t-103 53q-94 39 -135 88t-41 122q0 70 51.5 113t138.5 43q44 0 82.5 -6t87.5 -22l-15 -48q-85 30 -156 30q-66 0 -101.5 -31
t-35.5 -82q0 -42 16 -70t52.5 -52.5t98.5 -49.5q99 -41 140.5 -90t41.5 -123zM334 -134q0 -79 -87 -79q-16 0 -36.5 4t-27.5 8l9 37q29 -10 56 -10q42 0 42 39q0 24 -18.5 36.5t-75.5 22.5l48 76h47l-34 -53q37 -9 57 -30t20 -51z" />
    <glyph glyph-name="scedilla" unicode="&#x15f;" horiz-adv-x="420" 
d="M367 145q0 -69 -47.5 -112t-125.5 -43q-80 0 -149 21l11 48q28 -9 62 -17t79 -8q54 0 87.5 29.5t33.5 76.5q0 31 -12 50.5t-38 37.5t-69 34q-74 27 -109.5 64t-35.5 93q0 63 40.5 100.5t111.5 37.5q30 0 67.5 -5.5t62.5 -11.5l-11 -47q-27 7 -56.5 13t-63.5 6
q-48 0 -75.5 -24.5t-27.5 -65.5q0 -32 12 -51.5t39 -36t71 -31.5q143 -50 143 -158zM277 -134q0 -79 -87 -79q-16 0 -36.5 4t-27.5 8l9 37q29 -10 56 -10q42 0 42 39q0 24 -18.5 36.5t-75.5 22.5l48 76h47l-34 -53q37 -9 57 -30t20 -51z" />
    <glyph glyph-name="Scaron" unicode="&#x160;" horiz-adv-x="522" 
d="M465 176q0 -83 -58 -134.5t-153 -51.5q-113 0 -204 31l17 52q54 -20 94.5 -27.5t91.5 -7.5q71 0 115 38.5t44 98.5q0 45 -16 72.5t-53 53.5t-103 53q-94 39 -135 88t-41 122q0 70 51.5 113t138.5 43q44 0 82.5 -6t87.5 -22l-15 -48q-85 30 -156 30q-66 0 -101.5 -31
t-35.5 -82q0 -42 16 -70t52.5 -52.5t98.5 -49.5q99 -41 140.5 -90t41.5 -123zM395 886l-118 -120h-33l-118 120l28 13l106 -83l107 83z" />
    <glyph glyph-name="scaron" unicode="&#x161;" horiz-adv-x="420" 
d="M367 145q0 -69 -47.5 -112t-125.5 -43q-80 0 -149 21l11 48q28 -9 62 -17t79 -8q54 0 87.5 29.5t33.5 76.5q0 31 -12 50.5t-38 37.5t-69 34q-74 27 -109.5 64t-35.5 93q0 63 40.5 100.5t111.5 37.5q30 0 67.5 -5.5t62.5 -11.5l-11 -47q-27 7 -56.5 13t-63.5 6
q-48 0 -75.5 -24.5t-27.5 -65.5q0 -32 12 -51.5t39 -36t71 -31.5q143 -50 143 -158zM343 743l-114 -134h-41l-114 134l28 20l106 -109l107 109z" />
    <glyph glyph-name="Tcommaaccent" unicode="&#x162;" horiz-adv-x="515" 
d="M284 663v-663h-51v663h-220v47h489v-47h-218zM326 -134q0 -79 -87 -79q-16 0 -36.5 4t-27.5 8l9 37q29 -10 56 -10q42 0 42 39q0 24 -18.5 36.5t-75.5 22.5l48 76h47l-34 -53q37 -9 57 -30t20 -51z" />
    <glyph glyph-name="tcommaaccent" unicode="&#x163;" horiz-adv-x="342" 
d="M163 500v-380q0 -46 17 -65t48 -19q35 0 89 13l9 -44q-51 -15 -103 -15q-111 0 -111 120v390h-88v47h88l6 123h45v-123h147v-47h-147zM279 -134q0 -79 -87 -79q-16 0 -36.5 4t-27.5 8l9 37q29 -10 56 -10q42 0 42 39q0 24 -18.5 36.5t-75.5 22.5l48 76h47l-34 -53
q37 -9 57 -30t20 -51z" />
    <glyph glyph-name="Tcaron" unicode="&#x164;" horiz-adv-x="515" 
d="M284 663v-663h-51v663h-220v47h489v-47h-218zM392 886l-118 -120h-33l-118 120l28 13l106 -83l107 83z" />
    <glyph glyph-name="tcaron" unicode="&#x165;" horiz-adv-x="342" 
d="M163 500v-380q0 -46 17 -65t48 -19q35 0 89 13l9 -44q-51 -15 -103 -15q-111 0 -111 120v390h-88v47h88l6 123h45v-123h147v-47h-147zM311 737q0 -38 -19 -71t-52 -55l-23 25q21 14 36 36.5t18 48.5q-20 0 -30.5 9.5t-10.5 24.5t9.5 26t28.5 11q20 0 31.5 -13.5
t11.5 -41.5z" />
    <glyph glyph-name="Uring" unicode="&#x16e;" horiz-adv-x="680" 
d="M593 219q0 -104 -68.5 -166.5t-185.5 -62.5q-116 0 -184.5 62t-68.5 168v490h52v-477q0 -91 54 -144t147 -53q94 0 147.5 51.5t53.5 141.5v481h53v-491zM256 850q0 35 24 60t60 25q35 0 60 -25t25 -60q0 -36 -25.5 -60t-59.5 -24q-36 0 -60 24t-24 60zM294 850
q0 -19 13 -32t33 -13t32.5 13t12.5 32q0 20 -12.5 33t-32.5 13t-33 -13t-13 -33z" />
    <glyph glyph-name="uring" unicode="&#x16f;" horiz-adv-x="578" 
d="M85 547h50v-377q0 -65 32.5 -99.5t92.5 -34.5q51 0 92 13.5t86 43.5v454h50v-547h-40l-10 46q-48 -32 -88.5 -44t-94.5 -12q-80 0 -125 46.5t-45 128.5v382zM191 707q0 42 28.5 70.5t69.5 28.5t70 -29t29 -70t-28.5 -69.5t-70.5 -28.5t-70 28t-28 70zM231 707
q0 -25 16.5 -41.5t41.5 -16.5t41.5 16.5t16.5 41.5q0 24 -17 41.5t-41 17.5q-23 0 -40.5 -17t-17.5 -42z" />
    <glyph glyph-name="Uhungarumlaut" unicode="&#x170;" horiz-adv-x="680" 
d="M593 219q0 -104 -68.5 -166.5t-185.5 -62.5q-116 0 -184.5 62t-68.5 168v490h52v-477q0 -91 54 -144t147 -53q94 0 147.5 51.5t53.5 141.5v481h53v-491zM404 766l-25 13l97 120l50 -28zM261 766l-25 13l97 120l50 -28z" />
    <glyph glyph-name="uhungarumlaut" unicode="&#x171;" horiz-adv-x="578" 
d="M85 547h50v-377q0 -65 32.5 -99.5t92.5 -34.5q51 0 92 13.5t86 43.5v454h50v-547h-40l-10 46q-48 -32 -88.5 -44t-94.5 -12q-80 0 -125 46.5t-45 128.5v382zM339 627l97 139l45 -33l-117 -124zM196 627l97 139l45 -33l-117 -124z" />
    <glyph glyph-name="Ydieresis" unicode="&#x178;" horiz-adv-x="553" 
d="M13 710h61l202 -327l202 327h62l-238 -372v-338h-52v339zM148 827q0 21 11.5 30.5t26.5 9.5q16 0 27 -9.5t11 -30.5q0 -20 -11 -30.5t-27 -10.5q-15 0 -26.5 10.5t-11.5 30.5zM329 827q0 21 10.5 30.5t27.5 9.5q15 0 26.5 -9.5t11.5 -30.5q0 -20 -11.5 -30.5t-26.5 -10.5
q-17 0 -27.5 10.5t-10.5 30.5z" />
    <glyph glyph-name="Zacute" unicode="&#x179;" horiz-adv-x="575" 
d="M534 0h-493v44l420 618h-402v48h463v-43l-419 -619h431v-48zM229 785l135 122l45 -36l-154 -105z" />
    <glyph glyph-name="zacute" unicode="&#x17a;" horiz-adv-x="457" 
d="M424 0h-385v36l300 464h-283v47h350v-36l-300 -463h318v-48zM191 627l132 139l39 -38l-143 -122z" />
    <glyph glyph-name="Zdotaccent" unicode="&#x17b;" horiz-adv-x="575" 
d="M534 0h-493v44l420 618h-402v48h463v-43l-419 -619h431v-48zM252 826q0 23 12 33.5t30 10.5q17 0 29 -11t12 -33t-12 -33.5t-29 -11.5q-19 0 -30.5 11.5t-11.5 33.5z" />
    <glyph glyph-name="zdotaccent" unicode="&#x17c;" horiz-adv-x="457" 
d="M424 0h-385v36l300 464h-283v47h350v-36l-300 -463h318v-48zM199 674q0 23 12 33.5t30 10.5t29.5 -11t11.5 -33t-12 -33.5t-29 -11.5q-19 0 -30.5 11.5t-11.5 33.5z" />
    <glyph glyph-name="Zcaron" unicode="&#x17d;" horiz-adv-x="575" 
d="M534 0h-493v44l420 618h-402v48h463v-43l-419 -619h431v-48zM432 886l-118 -120h-33l-118 120l28 13l106 -83l107 83z" />
    <glyph glyph-name="zcaron" unicode="&#x17e;" horiz-adv-x="457" 
d="M424 0h-385v36l300 464h-283v47h350v-36l-300 -463h318v-48zM375 743l-114 -134h-41l-114 134l28 20l106 -109l107 109z" />
    <glyph glyph-name="florin" unicode="&#x192;" 
d="M423 768q48 0 108 -16l-12 -45q-49 14 -101 14q-42 0 -65 -23.5t-33 -79.5l-35 -200h165l-8 -46h-165l-106 -604h-51l106 604h-93l6 36l95 10l35 201q13 78 49 113.5t105 35.5z" />
    <glyph glyph-name="circumflex" unicode="&#x2c6;" horiz-adv-x="500" 
d="M356 609l-107 109l-106 -109l-28 20l114 134h41l114 -134z" />
    <glyph glyph-name="caron" unicode="&#x2c7;" horiz-adv-x="500" 
d="M384 743l-114 -134h-41l-114 134l28 20l106 -109l107 109z" />
    <glyph glyph-name="breve" unicode="&#x2d8;" horiz-adv-x="500" 
d="M250 658q35 0 57.5 23.5t33.5 74.5h41q-17 -73 -49 -105t-83 -32t-83.5 32.5t-48.5 104.5h41q11 -51 33.5 -74.5t57.5 -23.5z" />
    <glyph glyph-name="dotaccent" unicode="&#x2d9;" horiz-adv-x="500" 
d="M208 674q0 23 12 33.5t30 10.5t29.5 -11t11.5 -33t-12 -33.5t-29 -11.5q-19 0 -30.5 11.5t-11.5 33.5z" />
    <glyph glyph-name="ring" unicode="&#x2da;" horiz-adv-x="500" 
d="M151 707q0 42 28.5 70.5t69.5 28.5t70 -29t29 -70t-28.5 -69.5t-70.5 -28.5t-70 28t-28 70zM191 707q0 -25 16.5 -41.5t41.5 -16.5t41.5 16.5t16.5 41.5q0 24 -17 41.5t-41 17.5q-23 0 -40.5 -17t-17.5 -42z" />
    <glyph glyph-name="ogonek" unicode="&#x2db;" horiz-adv-x="500" 
d="M326 -184q-38 -15 -75 -15t-57.5 19t-20.5 52q0 24 10 43t26 35.5t34.5 31t36.5 28.5h38v-10q-54 -44 -75.5 -70.5t-21.5 -49.5q0 -38 39 -38q27 0 56 12z" />
    <glyph glyph-name="tilde" unicode="&#x2dc;" horiz-adv-x="500" 
d="M314 663q18 0 35.5 9.5t40.5 36.5l22 -35q-17 -24 -44 -39.5t-51 -15.5q-18 0 -35 6.5t-33 14.5t-32.5 14.5t-32.5 6.5q-17 0 -34 -10.5t-36 -36.5l-27 35q19 26 45.5 41.5t52.5 15.5q17 0 35 -7t34.5 -15t32 -14.5t27.5 -6.5z" />
    <glyph glyph-name="hungarumlaut" unicode="&#x2dd;" horiz-adv-x="500" 
d="M290 627l97 139l45 -33l-117 -124zM147 627l97 139l45 -33l-117 -124z" />
    <glyph glyph-name="Omega" unicode="&#x3a9;" horiz-adv-x="741" 
d="M370 720q93 0 161 -38.5t105 -116.5t37 -188q0 -70 -22 -137t-59 -118.5t-77 -73.5h169v-48h-259v48q53 17 97 67.5t69.5 121t25.5 140.5q0 140 -63.5 217t-183.5 77t-183.5 -77t-63.5 -217q0 -72 26.5 -143.5t70 -120t95.5 -65.5v-48h-259v48h169q-40 22 -77.5 74
t-59 118.5t-21.5 136.5q0 162 78.5 252.5t224.5 90.5z" />
    <glyph glyph-name="pi" unicode="&#x3c0;" horiz-adv-x="599" 
d="M553 -6q-36 -4 -55 -4q-56 0 -86 29.5t-30 86.5v375h-180l-42 -481h-51l42 481h-136v35l94 11h456v-46h-132v-364q0 -81 70 -81q22 0 45 3z" />
    <glyph glyph-name="endash" unicode="&#x2013;" horiz-adv-x="500" 
d="M-1 247v46h502v-46h-502z" />
    <glyph glyph-name="emdash" unicode="&#x2014;" horiz-adv-x="1000" 
d="M-1 247v46h1002v-46h-1002z" />
    <glyph glyph-name="quoteleft" unicode="&#x2018;" horiz-adv-x="188" 
d="M52 583q0 37 19 70.5t52 55.5l23 -25q-21 -14 -36 -36.5t-18 -48.5q20 0 30.5 -9.5t10.5 -24.5t-9.5 -26t-28.5 -11q-20 0 -31.5 14t-11.5 41z" />
    <glyph glyph-name="quoteright" unicode="&#x2019;" horiz-adv-x="188" 
d="M136 654q0 -37 -19 -71t-52 -55l-23 25q21 14 36.5 37t17.5 48q-20 0 -30.5 9.5t-10.5 24.5t9.5 26t28.5 11q20 0 31.5 -13.5t11.5 -41.5z" />
    <glyph glyph-name="quotesinglbase" unicode="&#x201a;" horiz-adv-x="188" 
d="M136 29q0 -37 -19 -71t-52 -55l-23 25q21 14 36.5 37t17.5 48q-20 0 -30.5 9.5t-10.5 24.5t9.5 26t28.5 11q20 0 31.5 -13.5t11.5 -41.5z" />
    <glyph glyph-name="quotedblleft" unicode="&#x201c;" horiz-adv-x="348" 
d="M212 583q0 37 19 70.5t52 55.5l23 -25q-21 -14 -36 -36.5t-18 -48.5q19 0 30 -9.5t11 -24.5t-10 -26t-28 -11q-21 0 -32 14t-11 41zM52 583q0 37 19 70.5t52 55.5l23 -25q-21 -14 -36 -36.5t-18 -48.5q20 0 30.5 -9.5t10.5 -24.5t-9.5 -26t-28.5 -11q-20 0 -31.5 14
t-11.5 41z" />
    <glyph glyph-name="quotedblright" unicode="&#x201d;" horiz-adv-x="348" 
d="M136 654q0 -37 -19 -71t-52 -55l-23 25q21 14 36.5 37t17.5 48q-20 0 -30.5 9.5t-10.5 24.5t9.5 26t28.5 11q20 0 31.5 -13.5t11.5 -41.5zM296 654q0 -39 -19.5 -72t-51.5 -54l-23 25q21 14 36 36.5t18 48.5q-20 0 -30.5 9.5t-10.5 24.5t9.5 26t28.5 11q20 0 31.5 -13.5
t11.5 -41.5z" />
    <glyph glyph-name="quotedblbase" unicode="&#x201e;" horiz-adv-x="348" 
d="M136 29q0 -37 -19 -71t-52 -55l-23 25q21 14 36.5 37t17.5 48q-20 0 -30.5 9.5t-10.5 24.5t9.5 26t28.5 11q20 0 31.5 -13.5t11.5 -41.5zM296 29q0 -38 -19.5 -71.5t-51.5 -54.5l-23 25q21 14 36 36.5t18 48.5q-20 0 -30.5 9.5t-10.5 24.5t9.5 26t28.5 11
q20 0 31.5 -13.5t11.5 -41.5z" />
    <glyph glyph-name="dagger" unicode="&#x2020;" horiz-adv-x="477" 
d="M215 -66v512h-155v44h155v220h47v-220h155v-44h-155v-512h-47z" />
    <glyph glyph-name="daggerdbl" unicode="&#x2021;" horiz-adv-x="477" 
d="M215 446h-155v44h155v220h47v-220h155v-44h-155v-248h155v-44h-155v-220h-47v220h-155v44h155v248z" />
    <glyph glyph-name="bullet" unicode="&#x2022;" horiz-adv-x="384" 
d="M307 407q0 -47 -33.5 -81t-81.5 -34t-81.5 34.5t-33.5 80.5q0 48 34 81.5t81 33.5t81 -33.5t34 -81.5z" />
    <glyph glyph-name="ellipsis" unicode="&#x2026;" horiz-adv-x="564" 
d="M53 38q0 19 11.5 31.5t28.5 12.5q16 0 28.5 -12.5t12.5 -31.5q0 -18 -12 -30t-29 -12t-28.5 12t-11.5 30zM241 38q0 19 11.5 31.5t28.5 12.5q16 0 28.5 -12.5t12.5 -31.5q0 -18 -12 -30t-29 -12t-28.5 12t-11.5 30zM429 38q0 19 11.5 31.5t28.5 12.5q16 0 28.5 -12.5
t12.5 -31.5q0 -18 -12 -30t-29 -12t-28.5 12t-11.5 30z" />
    <glyph glyph-name="perthousand" unicode="&#x2030;" horiz-adv-x="979" 
d="M307 552q0 -84 -35.5 -125.5t-100.5 -41.5t-100.5 42.5t-35.5 124.5q0 81 34.5 124.5t101.5 43.5q65 0 100.5 -42t35.5 -126zM260 552q0 62 -22.5 94t-66.5 32q-41 0 -65 -30t-24 -96q0 -61 22.5 -93t66.5 -32q89 0 89 125zM617 157q0 -84 -35.5 -125.5t-100.5 -41.5
t-100.5 42.5t-35.5 124.5t35 125t101 43q65 0 100.5 -42t35.5 -126zM570 157q0 62 -22.5 94t-66.5 32q-89 0 -89 -126q0 -61 22.5 -93t66.5 -32q89 0 89 125zM110 0h-50l483 710h49zM944 157q0 -84 -35.5 -125.5t-100.5 -41.5t-100.5 42.5t-35.5 124.5t35.5 125t100.5 43
t100.5 -42t35.5 -126zM897 157q0 61 -22.5 93.5t-66.5 32.5q-89 0 -89 -126q0 -61 23 -93t66 -32q89 0 89 125z" />
    <glyph glyph-name="guilsinglleft" unicode="&#x2039;" horiz-adv-x="313" 
d="M277 81h-56l-185 179v6l185 179h56l-184 -182z" />
    <glyph glyph-name="guilsinglright" unicode="&#x203a;" horiz-adv-x="313" 
d="M36 445h56l185 -179v-6l-185 -179h-56l184 182z" />
    <glyph glyph-name="fraction" unicode="&#x2044;" horiz-adv-x="230" 
d="M-101 0h-50l483 710h49z" />
    <glyph glyph-name="Euro" unicode="&#x20ac;" 
d="M43 446h94q16 135 76.5 204.5t160.5 69.5q69 0 140 -29l-17 -50q-68 30 -121 30q-153 0 -182 -225h200v-45h-205l-1 -45v-49h206v-45h-202q23 -224 200 -224q56 0 124 30l13 -48q-62 -30 -141 -30q-226 0 -253 272h-92v45h90q-1 33 -1 43q0 16 2 51h-91v45z" />
    <glyph glyph-name="trademark" unicode="&#x2122;" horiz-adv-x="622" 
d="M519 417v259l-77 -259h-45l-76 259v-259h-37v293h65l70 -247h1l70 247h66v-293h-37zM155 674v-257h-40v257h-85v36h210v-36h-85z" />
    <glyph glyph-name="uni2126" unicode="&#x2126;" horiz-adv-x="741" 
d="M370 720q93 0 161 -38.5t105 -116.5t37 -188q0 -70 -22 -137t-59 -118.5t-77 -73.5h169v-48h-259v48q53 17 97 67.5t69.5 121t25.5 140.5q0 140 -63.5 217t-183.5 77t-183.5 -77t-63.5 -217q0 -72 26.5 -143.5t70 -120t95.5 -65.5v-48h-259v48h169q-40 22 -77.5 74
t-59 118.5t-21.5 136.5q0 162 78.5 252.5t224.5 90.5z" />
    <glyph glyph-name="partialdiff" unicode="&#x2202;" 
d="M499 409q0 -129 -33.5 -222.5t-94 -144t-139.5 -50.5q-88 0 -137.5 59t-49.5 165q0 79 29 138t81.5 91.5t117.5 32.5q49 0 93.5 -20.5t78.5 -58.5q0 82 -12.5 131t-38 80.5t-66.5 47.5t-99 16q-13 0 -26.5 -1t-67.5 -6l-4 48q37 5 96 5q89 0 149.5 -31.5t91.5 -99.5
t31 -180zM443 342q-44 50 -83.5 69.5t-84.5 19.5q-48 0 -88 -26.5t-63 -76t-23 -120.5q0 -80 36 -124.5t100 -44.5q55 0 98.5 34t71.5 103.5t36 165.5z" />
    <glyph glyph-name="uni2206" unicode="&#x2206;" horiz-adv-x="584" 
d="M323 710l261 -662v-48h-584v48l261 662h62zM531 48l-195 491q-8 21 -24.5 68t-19.5 61q-8 -31 -34 -100l-10 -29l-195 -491h478z" />
    <glyph glyph-name="product" unicode="&#x220f;" horiz-adv-x="724" 
d="M568 -152v817h-412v-817h-52v862h516v-862h-52z" />
    <glyph glyph-name="summation" unicode="&#x2211;" horiz-adv-x="648" 
d="M53 -152v37l303 393l-295 395v37h530v-45h-463l290 -387l-297 -385h517v-45h-585z" />
    <glyph glyph-name="minus" unicode="&#x2212;" 
d="M512 366v-45h-476v45h476z" />
    <glyph glyph-name="radical" unicode="&#x221a;" 
d="M302 0h-37l-119 344h-110v48h147l90 -267l13 -50q3 26 13 75l168 560h51z" />
    <glyph glyph-name="infinity" unicode="&#x221e;" horiz-adv-x="779" 
d="M724 289q0 -62 -45.5 -108t-108.5 -46q-47 0 -89 26t-91 92q-50 -65 -92 -91.5t-86 -26.5q-66 0 -111.5 46t-45.5 108q0 41 21.5 78t57.5 58t78 21q32 0 58.5 -10.5t51.5 -32.5t67 -75q48 63 90.5 90.5t90.5 27.5q62 0 108 -46.5t46 -110.5zM678 289q0 46 -32 79t-76 33
q-26 0 -49 -11t-45 -31.5t-58 -68.5q46 -60 81.5 -84.5t70.5 -24.5q45 0 76.5 31.5t31.5 76.5zM212 181q25 0 47.5 11.5t44.5 32t57 66.5q-42 54 -62.5 72.5t-41.5 28t-45 9.5q-46 0 -78.5 -33t-32.5 -79q0 -45 32.5 -76.5t78.5 -31.5z" />
    <glyph glyph-name="integral" unicode="&#x222b;" horiz-adv-x="335" 
d="M183 -54q0 -92 -33 -135t-107 -43q-17 0 -45 5t-38 10l12 46q11 -5 35 -9.5t38 -4.5q43 0 65 30.5t22 100.5v7v637q0 92 33.5 135t106.5 43q19 0 46 -5.5t37 -9.5l-12 -46q-17 7 -38.5 10.5t-34.5 3.5q-43 0 -65 -31.5t-22 -106.5v-637z" />
    <glyph glyph-name="approxequal" unicode="&#x2248;" 
d="M388 206q-28 0 -56.5 8t-57.5 18t-57.5 18t-56.5 8q-30 0 -63 -14.5t-61 -37.5v49q28 23 61 36t63 13t59 -8t57 -18t56 -18t56 -8q30 0 63 14.5t61 37.5v-48q-24 -22 -59 -36t-65 -14zM388 384q-28 0 -56.5 8t-57.5 17.5t-57.5 17.5t-56.5 8q-27 0 -60 -13.5t-64 -37.5
v48q26 22 59.5 35.5t64.5 13.5q30 0 59 -8t57 -17.5t56 -17.5t56 -8q30 0 63 14t61 37v-48q-26 -23 -60 -36t-64 -13z" />
    <glyph glyph-name="notequal" unicode="&#x2260;" 
d="M36 458h272l88 153h52l-87 -153h151v-45h-177l-79 -139h256v-45h-282l-87 -153h-52l87 153h-142v45h167l80 139h-247v45z" />
    <glyph glyph-name="lessequal" unicode="&#x2264;" 
d="M512 540l-420 -177l420 -178v-48l-476 204v45l476 203v-49zM36 45h476v-45h-476v45z" />
    <glyph glyph-name="greaterequal" unicode="&#x2265;" 
d="M37 589l476 -203v-45l-476 -204v48l420 178l-420 177v49zM513 0h-476v45h476v-45z" />
    <glyph glyph-name="lozenge" unicode="&#x25ca;" horiz-adv-x="600" 
d="M316 0h-33l-247 401l247 404h33l249 -403zM300 752l-213 -350l213 -351l213 351z" />
    <glyph glyph-name="zero.aalt" horiz-adv-x="646" 
d="M323 36q93 0 149.5 65t56.5 172q0 71 -25.5 125.5t-73 83.5t-107.5 29q-59 0 -106.5 -29.5t-73.5 -83.5t-26 -125t26 -124.5t73.5 -83t106.5 -29.5zM323 -10q-117 0 -188 76t-71 207q0 86 32 150.5t91 99t136 34.5t136 -34.5t91 -98.5t32 -151q0 -130 -70.5 -206.5
t-188.5 -76.5z" />
    <glyph glyph-name="one.aalt" horiz-adv-x="487" 
d="M44 462l209 96h39v-511h151v-47h-372v47h171v453l-182 -82z" />
    <glyph glyph-name="two.aalt" 
d="M261 557q96 0 149.5 -41.5t53.5 -119.5q0 -63 -36 -117t-114 -109.5t-206 -117.5v-3h384v-49h-440v72q128 64 206 117t113.5 98.5t35.5 96.5q0 61 -37 92.5t-109 31.5q-39 0 -83.5 -10.5t-76.5 -25.5l-14 50q43 17 90 26t84 9z" />
    <glyph glyph-name="three.aalt" horiz-adv-x="522" 
d="M358 374q0 134 -148 134q-74 0 -149 -34l-13 47q33 14 72.5 25t89.5 11q99 0 152 -46.5t53 -132.5q0 -56 -36.5 -101.5t-93.5 -59.5q71 -11 115.5 -59t44.5 -120q0 -62 -29.5 -110.5t-84.5 -74.5t-129 -26q-42 0 -82.5 5t-100.5 21l15 49l31 -9q62 -18 135 -18
q87 0 139 45t52 119q0 72 -53.5 111.5t-155.5 39.5h-54v48h59q52 0 91 17.5t59.5 48.5t20.5 70z" />
    <glyph glyph-name="four.aalt" 
d="M352 558h50v-470h117v-48h-117v-202h-50v202h-333v47zM352 88v387l-273 -387h273z" />
    <glyph glyph-name="five.aalt" horiz-adv-x="524" 
d="M202 277q124 0 191 -55.5t67 -155.5q0 -67 -31 -122t-87.5 -86t-131.5 -31q-85 0 -173 26l15 51q33 -14 76.5 -21.5t84.5 -7.5q57 0 101 24.5t68 68t24 95.5q0 88 -56 128t-167 40h-104l39 316h305v-48h-262l-27 -222h68z" />
    <glyph glyph-name="six.aalt" horiz-adv-x="561" 
d="M60 292q0 187 97 298.5t287 139.5l8 -49q-160 -28 -242 -107.5t-96 -227.5q35 36 85.5 57.5t102.5 21.5q96 0 147.5 -53.5t51.5 -157.5q0 -63 -27.5 -114.5t-76 -80.5t-108.5 -29q-114 0 -171.5 76t-57.5 226zM445 213q0 81 -38 123.5t-109 42.5q-52 0 -101.5 -23
t-83.5 -60q0 -130 43 -194.5t133 -64.5q71 0 113.5 47t42.5 129z" />
    <glyph glyph-name="seven.aalt" horiz-adv-x="478" 
d="M118 -163h-58l329 662h-369v48h426v-40z" />
    <glyph glyph-name="eight.aalt" horiz-adv-x="566" 
d="M506 193q0 -96 -61 -149.5t-164 -53.5t-162 53.5t-59 149.5q0 61 35 107t94 66q-50 18 -78.5 64t-28.5 104q0 57 25.5 99t71.5 64.5t103 22.5t104 -23t72.5 -65t25.5 -98q0 -61 -29 -105.5t-80 -61.5q62 -21 96.5 -67.5t34.5 -106.5zM431 535q0 64 -41 102t-108 38
q-65 0 -106.5 -38.5t-41.5 -101.5q0 -68 39.5 -108t108.5 -40t109 40.5t40 107.5zM453 194q0 66 -47.5 107.5t-123.5 41.5t-122.5 -41t-46.5 -108q0 -75 44 -116.5t125 -41.5q80 0 125.5 42t45.5 116z" />
    <glyph glyph-name="nine.aalt" horiz-adv-x="561" 
d="M501 255q0 -188 -98 -300t-286 -138l-8 49q159 27 241.5 107t96.5 228q-38 -37 -87.5 -58t-100.5 -21q-96 0 -147.5 53.5t-51.5 157.5q0 63 27.5 115t75.5 80.5t109 28.5q113 0 171 -76t58 -226zM116 334q0 -81 37.5 -123.5t109.5 -42.5q52 0 101.5 23t83.5 60
q0 130 -43 194.5t-133 64.5q-71 0 -113.5 -47t-42.5 -129z" />
    <glyph glyph-name="dollar.aalt" horiz-adv-x="511" 
d="M434 139q0 -60 -42 -99.5t-116 -46.5v-84h-45v83q-86 2 -154 23l12 48q78 -25 156 -25q65 0 102.5 29t37.5 74q0 29 -13.5 47.5t-45.5 35.5t-86 36q-86 29 -123 63.5t-37 87.5q0 59 41 96.5t109 44.5v81h46v-79q63 -2 134 -17l-12 -47q-73 18 -139 18q-61 0 -95 -26.5
t-34 -70.5q0 -36 31.5 -61t105.5 -51q99 -35 133 -69t34 -91z" />
    <glyph glyph-name="sterling.aalt" 
d="M345 557q33 0 64.5 -5.5t84.5 -22.5l-15 -48q-51 19 -80 24.5t-59 5.5q-69 0 -99.5 -45.5t-30.5 -148.5v-26h178v-45h-178v-60q0 -40 -11.5 -72.5t-44.5 -68.5h350v-45h-444v45h42q25 21 41.5 59.5t16.5 81.5v60h-100v44h100v28q0 120 45 179.5t140 59.5z" />
    <glyph glyph-name="yen.aalt" 
d="M65 276h164l-181 271h61l142 -217l24 -40l25 41l140 216h61l-182 -271h166v-45h-185v-89h185v-45h-185v-97h-50v97h-185v45h185v89h-185v45z" />
    <glyph glyph-name="Euro.aalt" 
d="M480 488q-27 8 -59.5 15.5t-71.5 7.5q-64 0 -108.5 -38t-62.5 -110h220v-45h-228q-2 -21 -2 -44q0 -37 2 -53h228v-45h-220q35 -140 183 -140q31 0 69.5 7.5t69.5 19.5l12 -45q-24 -11 -68 -19.5t-84 -8.5q-96 0 -156 47t-80 139h-87v45h80q-2 24 -2 53q0 30 2 44h-80v45
h87q20 93 79.5 143.5t145.5 50.5q71 0 145 -21z" />
    <glyph glyph-name="glyph312" horiz-adv-x="500" 
d="M295 720q0 -38 -19 -71t-52 -55l-23 25q21 14 36 36.5t18 48.5q-20 0 -30.5 9.5t-10.5 24.5t9.5 26t28.5 11q20 0 31.5 -13.5t11.5 -41.5z" />
    <glyph glyph-name="glyph313" horiz-adv-x="230" 
d="M162 -114q0 -32 -18.5 -62.5t-52.5 -53.5l-23 25q21 14 36.5 32t17.5 43q-19 0 -30 9.5t-11 24.5t10 26t28 11q20 0 31.5 -13.5t11.5 -41.5z" />
    <glyph glyph-name="glyph314" horiz-adv-x="500" 
d="M199 785l135 122l45 -36l-154 -105z" />
    <glyph glyph-name="glyph315" horiz-adv-x="500" 
d="M284 766l-154 105l45 36l135 -122z" />
    <glyph glyph-name="glyph316" horiz-adv-x="500" 
d="M356 766l-107 83l-106 -83l-28 13l118 120h33l118 -120z" />
    <glyph glyph-name="glyph317" horiz-adv-x="500" 
d="M121 827q0 21 11.5 30.5t26.5 9.5q16 0 27 -9.5t11 -30.5q0 -20 -11 -30.5t-27 -10.5q-15 0 -26.5 10.5t-11.5 30.5zM302 827q0 21 10.5 30.5t27.5 9.5q15 0 26.5 -9.5t11.5 -30.5q0 -20 -11.5 -30.5t-26.5 -10.5q-17 0 -27.5 10.5t-10.5 30.5z" />
    <glyph glyph-name="glyph318" horiz-adv-x="500" 
d="M314 835q18 0 35 9.5t41 36.5l22 -35q-18 -25 -44.5 -40t-50.5 -15q-18 0 -35 6.5t-33 14.5t-32.5 14.5t-32.5 6.5q-36 0 -70 -47l-27 35q20 27 46 42t52 15q17 0 35 -7t34.5 -15t32 -14.5t27.5 -6.5z" />
    <glyph glyph-name="glyph319" horiz-adv-x="500" 
d="M165 850q0 35 24 60t60 25q35 0 60 -25t25 -60q0 -36 -25.5 -60t-59.5 -24q-36 0 -60 24t-24 60zM203 850q0 -19 13 -32t33 -13t32.5 13t12.5 32q0 20 -12.5 33t-32.5 13t-33 -13t-13 -33z" />
    <glyph glyph-name="glyph320" horiz-adv-x="500" 
d="M250 805q69 0 91 88h41q-18 -68 -50.5 -97.5t-81.5 -29.5q-50 0 -82.5 30.5t-49.5 96.5h41q22 -88 91 -88z" />
    <glyph glyph-name="glyph321" horiz-adv-x="500" 
d="M384 886l-118 -120h-33l-118 120l28 13l106 -83l107 83z" />
    <glyph glyph-name="glyph322" horiz-adv-x="500" 
d="M312 766l-25 13l97 120l50 -28zM169 766l-25 13l97 120l50 -28z" />
    <glyph glyph-name="glyph323" horiz-adv-x="500" 
d="M116 786v42h268v-42h-268z" />
    <glyph glyph-name="glyph324" horiz-adv-x="500" 
d="M208 826q0 23 12 33.5t30 10.5q17 0 29 -11t12 -33t-12 -33.5t-29 -11.5q-19 0 -30.5 11.5t-11.5 33.5z" />
    </font>
</defs>
</svg>
